<svg version="1.1" id="Layer_1" xmlns="http://www.w3.org/2000/svg" xmlns:xlink="http://www.w3.org/1999/xlink" x="0px" y="0px"
	 width="100%" viewBox="0 0 2181 454" enable-background="new 0 0 2181 454" xml:space="preserve">
<path fill="#000000" opacity="1.000000" stroke="none" 
	d="
M1627.000000,455.000000 
	C1084.718018,455.000000 542.935974,455.000000 1.076977,455.000000 
	C1.076977,303.732361 1.076977,152.464645 1.076977,1.098477 
	C728.000000,1.098477 1455.000000,1.098477 2181.973145,1.098477 
	C2181.973145,152.397629 2181.973145,303.698822 2181.973145,455.000000 
	C1997.130981,455.000000 1812.315552,455.000000 1627.000000,455.000000 
M377.577362,261.866943 
	C374.985504,261.866943 372.393646,261.866943 369.780670,261.866943 
	C369.780670,290.296997 369.780670,318.056702 369.780670,345.778381 
	C743.931824,345.778381 1117.798950,345.778381 1491.644531,345.778381 
	C1491.644531,317.690948 1491.644531,289.942780 1491.644531,261.866943 
	C1120.429443,261.866943 749.494446,261.866943 377.577362,261.866943 
M1791.503662,346.078186 
	C1807.332397,346.078186 1823.161133,346.078674 1838.989868,346.078064 
	C1863.982056,346.077057 1888.975708,346.241699 1913.966064,346.025848 
	C1937.646118,345.821381 1953.751221,331.558228 1953.829102,310.298645 
	C1954.044312,251.484543 1954.016479,192.668854 1953.854370,133.854446 
	C1953.806641,116.529861 1943.342651,102.628960 1927.535767,98.554047 
	C1922.298828,97.204018 1916.675903,96.891205 1911.228638,96.885429 
	C1820.257202,96.788933 1729.285645,96.816589 1638.314087,96.816574 
	C1636.526245,96.816574 1634.738403,96.816574 1632.472290,96.816574 
	C1633.200562,99.247299 1633.704224,101.148895 1634.337158,103.006416 
	C1640.551147,121.244263 1646.810791,139.466568 1653.009888,157.709442 
	C1660.705200,180.354828 1668.229370,203.059601 1676.116821,225.637589 
	C1678.019653,231.084518 1681.061157,236.133667 1683.462280,241.123077 
	C1688.635010,237.436935 1692.445068,234.185989 1696.734131,231.793930 
	C1702.815308,228.402420 1709.151489,225.410431 1715.572998,222.709839 
	C1718.971558,221.280518 1721.292847,219.458664 1722.820190,216.007584 
	C1723.576172,214.299850 1725.737061,212.550583 1727.568481,212.118896 
	C1731.502441,211.191589 1732.292114,208.497620 1732.937378,205.255188 
	C1734.165161,199.084885 1735.538086,192.943466 1736.952881,186.311295 
	C1734.559448,185.212891 1730.867188,183.765152 1727.407349,181.888840 
	C1710.856201,172.912552 1707.272705,158.859192 1717.630859,143.085083 
	C1724.921631,131.981949 1735.398071,124.765129 1747.594360,120.007767 
	C1752.404663,118.131378 1757.473389,116.917511 1762.424438,115.401978 
	C1762.608032,115.825760 1762.791626,116.249542 1762.975220,116.673325 
	C1760.133667,118.896652 1757.136475,120.950012 1754.484497,123.380005 
	C1749.590332,127.864449 1744.487305,132.224136 1740.237671,137.279953 
	C1735.955566,142.374557 1736.161133,148.518463 1740.809448,153.170959 
	C1748.002563,160.370178 1757.596558,162.776245 1767.256348,162.112274 
	C1785.310669,160.871231 1803.432739,157.324738 1820.075684,169.474182 
	C1820.075684,167.632706 1820.075684,166.337097 1820.075684,164.945206 
	C1823.696777,164.495331 1827.009155,164.166641 1830.292480,163.652664 
	C1833.577393,163.138458 1836.894409,162.661087 1840.090698,161.780212 
	C1850.607300,158.881897 1854.010986,149.890717 1847.694702,141.096695 
	C1844.605591,136.795807 1840.731689,133.057129 1837.192017,129.082657 
	C1836.417603,128.213104 1835.515381,127.457207 1834.743408,126.585686 
	C1834.094482,125.852913 1833.549438,125.028099 1832.244629,123.297180 
	C1846.820923,127.602028 1857.918945,134.798538 1865.717651,146.438019 
	C1876.881348,163.099472 1871.599609,178.637405 1852.585327,185.013489 
	C1846.343628,187.106583 1839.763306,188.189804 1834.308716,189.501373 
	C1835.493652,199.221222 1836.666382,209.087723 1837.907471,218.945618 
	C1838.976562,227.437775 1840.497803,235.690964 1847.505127,241.783478 
	C1850.745850,244.601242 1853.156494,248.126740 1851.045288,252.784836 
	C1848.817627,257.700043 1846.398682,262.844116 1840.068359,263.032013 
	C1830.055420,263.329224 1820.027222,263.111176 1810.076416,263.111176 
	C1816.682373,274.479431 1814.067749,284.843964 1805.394043,294.933990 
	C1800.820923,300.253937 1797.561035,306.760529 1794.077759,312.939636 
	C1791.725342,317.112305 1789.325317,320.684235 1784.409790,322.387939 
	C1782.501953,323.049133 1780.433472,325.681885 1780.013306,327.738342 
	C1778.804077,333.656586 1778.398560,339.738953 1777.638672,346.078186 
	C1782.206665,346.078186 1786.355469,346.078186 1791.503662,346.078186 
M196.635559,97.929138 
	C195.190048,98.033188 193.744537,98.137230 192.242310,98.245361 
	C192.242310,103.323448 192.242310,108.045845 192.242310,112.843124 
	C193.774170,112.960716 194.927628,113.042549 196.079865,113.138748 
	C209.447083,114.254669 221.701935,118.149902 230.657166,128.724655 
	C241.473083,141.496613 244.093872,156.141800 237.996658,171.724899 
	C231.468567,188.409241 218.175781,197.588303 200.895554,198.734207 
	C179.489502,200.153687 157.945282,199.493057 136.460464,199.698990 
	C136.025681,199.703140 135.587143,199.315079 135.043304,199.059738 
	C134.962509,197.890045 134.812851,196.737335 134.813705,195.584732 
	C134.828506,175.585281 134.841171,155.585770 134.913330,135.586487 
	C134.924133,132.595001 134.989151,129.566559 135.448730,126.620697 
	C136.942398,117.046410 140.647705,113.736099 150.402359,113.324944 
	C155.559937,113.107552 160.733856,113.277649 165.900406,113.273743 
	C167.819397,113.272293 169.738403,113.273521 171.683533,113.273521 
	C171.683533,107.739296 171.683533,103.014648 171.683533,98.313454 
	C127.240707,98.313454 83.172188,98.313454 38.723537,98.313454 
	C38.723537,102.340759 38.701809,105.987137 38.738239,109.632942 
	C38.747795,110.589050 38.937752,111.543350 39.116268,113.135246 
	C43.761768,113.135246 48.238380,112.868317 52.672737,113.187820 
	C63.739315,113.985214 66.848228,117.023552 68.322723,128.024445 
	C68.653687,130.493713 68.879715,132.998642 68.881042,135.487320 
	C68.911896,193.152466 68.910538,250.817627 68.885147,308.482788 
	C68.884117,310.807220 68.718246,313.148651 68.410530,315.453003 
	C66.815964,327.394257 63.320995,330.566315 51.267982,330.951508 
	C47.185116,331.081970 43.094570,330.972198 39.069958,330.972198 
	C39.069958,336.431580 39.069958,341.019196 39.069958,345.775513 
	C83.481415,345.775513 127.539009,345.775513 171.712280,345.775513 
	C171.712280,340.705536 171.712280,335.975250 171.712280,330.785187 
	C164.574203,330.785187 157.770889,330.903290 150.973221,330.757416 
	C140.813583,330.539368 136.824722,327.018524 135.355759,317.019836 
	C134.946167,314.231995 134.913895,311.371674 134.907837,308.544189 
	C134.848907,281.044922 134.826675,253.545578 134.822006,226.046249 
	C134.821793,224.776993 135.087708,223.507706 135.274155,221.840866 
	C147.536697,221.840866 159.508881,221.693375 171.475723,221.883240 
	C182.953110,222.065308 194.545380,221.676437 205.875305,223.158310 
	C233.396820,226.757889 252.827789,248.912613 252.915405,275.530853 
	C252.999954,301.223267 235.423035,322.961853 209.480759,328.884369 
	C203.564484,330.235046 197.456161,330.744537 191.492676,331.632812 
	C191.492676,336.449951 191.492676,341.037872 191.492676,345.805298 
	C237.235413,345.805298 282.640472,345.805298 328.275787,345.805298 
	C328.275787,340.753845 328.275787,336.010468 328.275787,331.292358 
	C321.647552,330.857666 315.323639,330.739899 309.084137,329.952850 
	C302.423401,329.112671 299.049377,325.541687 298.069122,318.902924 
	C297.511444,315.125885 297.152527,311.281128 297.148651,307.466431 
	C297.090942,250.634247 297.092499,193.802002 297.141937,136.969818 
	C297.145111,133.320221 297.486145,129.649017 297.962097,126.026237 
	C298.978424,118.290085 302.365540,114.819641 310.191132,113.949066 
	C316.098602,113.291870 322.067352,113.185867 328.302917,112.817146 
	C328.302917,107.923500 328.302917,103.180084 328.302917,97.928879 
	C284.530762,97.928879 241.071075,97.928879 196.635559,97.929138 
M1610.419067,115.049667 
	C1607.795532,109.859528 1605.313110,104.589485 1602.449463,99.535454 
	C1601.733643,98.272125 1599.801880,96.957458 1598.409180,96.935814 
	C1587.918213,96.772751 1577.396851,96.479744 1566.933105,97.073944 
	C1544.304688,98.358910 1530.364380,112.593132 1530.320068,134.379700 
	C1530.202637,192.190384 1530.111938,250.002609 1530.506836,307.810822 
	C1530.552612,314.523376 1532.635254,321.756592 1535.660767,327.804291 
	C1542.205322,340.886322 1554.243896,345.895782 1568.295044,345.984070 
	C1599.614868,346.180878 1630.943237,345.721527 1662.253052,346.322815 
	C1670.012085,346.471771 1673.991943,343.908875 1676.854492,337.257965 
	C1680.271851,329.317902 1684.636841,321.698395 1683.916626,312.646118 
	C1683.481567,307.178436 1682.684082,301.739563 1682.003296,295.891602 
	C1673.372803,305.399078 1661.849121,310.469940 1650.155396,315.302826 
	C1645.545654,317.207916 1641.134399,316.789764 1636.579102,315.259094 
	C1633.576172,314.250061 1632.278809,312.545776 1632.787109,309.287750 
	C1633.401978,305.347748 1633.167358,301.199066 1634.290649,297.436310 
	C1635.380615,293.785034 1637.309692,290.195465 1639.612915,287.138306 
	C1643.295044,282.251099 1648.223511,278.229828 1651.485107,273.115570 
	C1656.925537,264.584839 1662.486816,256.503418 1671.936890,251.903458 
	C1676.032349,249.909912 1676.851074,247.102509 1674.581909,242.619019 
	C1653.199707,200.371582 1632.038696,158.012161 1610.419067,115.049667 
M430.181488,174.718353 
	C428.963776,184.826096 433.701385,195.733963 426.123138,204.999420 
	C425.949219,205.212051 426.021576,205.646652 426.021332,205.977737 
	C426.016388,212.761398 426.017639,219.545059 426.017639,226.436737 
	C442.576813,226.436737 458.590851,226.436737 474.872437,226.436737 
	C474.872437,219.496567 474.903625,213.008347 474.837463,206.521118 
	C474.827942,205.590210 474.645782,204.329041 474.038330,203.790268 
	C470.171936,200.360886 470.351471,195.798477 470.329865,191.307007 
	C470.281708,181.310883 469.637482,171.256973 470.479187,161.332016 
	C471.631866,147.740585 467.036560,133.911118 474.329681,120.345940 
	C477.287079,114.845161 474.817749,106.426804 474.817749,99.393768 
	C458.170105,99.393768 442.266937,99.393768 426.005585,99.393768 
	C426.005585,106.224388 425.981262,112.698036 426.032379,119.171082 
	C426.039856,120.121849 426.097992,121.334480 426.652405,121.978783 
	C433.493988,129.929657 428.823212,139.067520 430.333527,147.565674 
	C424.684601,147.565674 419.966705,147.565674 414.800385,147.565674 
	C416.269379,138.476761 413.593719,129.906784 418.497681,120.970535 
	C421.557953,115.393997 419.066650,106.770927 419.066650,99.033264 
	C404.135834,99.033264 389.678467,99.026154 375.221130,99.045456 
	C373.930481,99.047173 372.640045,99.220268 370.464111,99.377914 
	C372.367340,108.368530 367.643005,117.692314 374.034210,125.965408 
	C374.767395,126.914452 374.920563,128.499527 374.928070,129.792114 
	C375.002502,142.620239 375.570801,155.482269 374.835907,168.267822 
	C374.118225,180.753098 377.657471,193.379562 371.303955,205.871613 
	C368.503998,211.376724 370.832245,219.490082 370.832245,226.565140 
	C387.262451,226.565140 402.996185,226.565140 418.691650,226.565140 
	C418.937073,225.796570 419.250732,225.318237 419.207794,224.874420 
	C418.383606,216.359573 419.993683,208.060425 416.414673,199.202621 
	C413.384766,191.703751 415.790070,182.008774 415.790070,172.603500 
	C420.530396,172.998428 425.243713,173.391098 430.181488,174.718353 
M1006.400330,224.095261 
	C1019.544739,219.612671 1024.870605,209.341660 1025.851807,196.533112 
	C1027.089233,180.380692 1024.958252,165.603104 1004.833862,159.965164 
	C1015.818481,156.056870 1022.022766,149.353165 1023.600037,139.071518 
	C1024.225708,134.993774 1024.199829,130.751999 1023.951538,126.616058 
	C1023.132874,112.976273 1015.639832,103.955017 1002.313049,100.771118 
	C997.978455,99.735565 993.429016,99.189209 988.971313,99.149879 
	C968.473083,98.969017 947.972656,99.040451 927.472961,99.046280 
	C926.198303,99.046638 924.923645,99.259979 923.209167,99.413658 
	C923.209167,106.344704 923.185120,112.975685 923.241882,119.605980 
	C923.248413,120.367661 923.467957,121.479889 923.990479,121.829872 
	C928.879639,125.104965 928.256653,130.135010 928.266663,134.925003 
	C928.304016,152.758072 928.354553,170.591705 928.240295,188.424118 
	C928.203979,194.090469 929.685608,200.332764 923.661316,204.364532 
	C923.353455,204.570572 923.258667,205.265381 923.256958,205.733307 
	C923.232117,212.663635 923.239868,219.594070 923.239868,226.510406 
	C924.626282,226.702484 925.274048,226.870941 925.921692,226.870575 
	C947.587891,226.858643 969.255920,226.976913 990.918762,226.693726 
	C995.837585,226.629395 1000.738098,225.165054 1006.400330,224.095261 
M699.623413,162.119019 
	C710.550232,158.137024 715.182251,149.709473 716.034485,138.699265 
	C716.265381,135.716034 716.297180,132.700531 716.176208,129.709732 
	C715.476074,112.404900 705.872498,101.038780 688.531616,100.155472 
	C664.770203,98.945114 640.922546,99.423820 617.111694,99.201790 
	C616.833191,99.199188 616.551819,99.505508 615.791687,99.945610 
	C615.791687,106.461693 615.765930,113.257156 615.827393,120.051811 
	C615.834290,120.819069 616.367065,121.571754 616.597717,122.348495 
	C617.741638,126.199699 619.508301,130.000702 619.850464,133.924484 
	C620.398438,140.209427 620.497437,146.624466 619.902466,152.900757 
	C618.234314,170.496780 623.681702,188.406921 616.189392,205.918167 
	C613.687256,211.766342 615.794189,219.586563 615.794189,226.520477 
	C632.350586,226.520477 648.087280,226.520477 664.488098,226.520477 
	C662.890503,217.352600 667.362488,207.963593 660.912720,199.748657 
	C660.436646,199.142334 660.221130,198.180008 660.214600,197.380463 
	C660.160339,190.755661 660.183838,184.130188 660.183838,177.555069 
	C668.656189,176.568649 672.383911,179.111862 673.275085,186.801437 
	C673.809509,191.412201 673.573120,196.108063 673.792419,200.760544 
	C674.121338,207.736877 674.609131,214.705994 674.906738,221.683426 
	C675.086792,225.904556 677.018311,227.213898 681.253052,226.997452 
	C688.732788,226.615158 696.246094,226.890427 703.745361,226.890442 
	C708.684875,226.890442 713.624390,226.890427 719.362793,226.890427 
	C717.314880,217.565445 722.440918,208.183304 715.321716,200.103806 
	C714.103088,198.720840 714.203613,195.984070 714.098267,193.852753 
	C713.901062,189.861832 714.061523,185.854767 713.961670,181.857193 
	C713.749756,173.373566 710.270020,167.141129 701.796997,164.342438 
	C700.808777,164.016022 699.982117,163.200516 699.623413,162.119019 
M792.497131,99.031082 
	C775.247375,99.031082 757.997620,99.031082 740.322021,99.031082 
	C740.322021,106.254372 740.244263,112.727097 740.395020,119.194511 
	C740.421631,120.335587 741.419067,121.447113 741.940613,122.584938 
	C743.072815,125.054825 745.081665,127.504929 745.160156,130.012344 
	C745.592651,143.828094 746.201904,157.693161 745.470947,171.473419 
	C744.868652,182.828049 749.754272,195.217880 740.415100,205.316071 
	C740.415100,212.401398 740.415100,219.486740 740.415100,226.892929 
	C752.066895,226.892929 762.886353,227.003494 773.702637,226.863739 
	C786.019165,226.704575 798.380920,226.906036 810.635864,225.894623 
	C827.445557,224.507309 839.453674,211.960419 839.838135,195.231308 
	C840.339539,173.414124 840.389099,151.565140 839.813904,129.751450 
	C839.360779,112.565376 828.987122,101.996201 811.930725,100.015785 
	C805.829712,99.307396 799.642822,99.338181 792.497131,99.031082 
M1126.817383,223.436279 
	C1138.359131,216.636169 1143.669800,206.123642 1143.908936,193.141129 
	C1144.270752,173.494141 1144.131226,153.837753 1144.177124,134.185287 
	C1144.187500,129.785919 1144.304077,125.475311 1148.151611,122.359146 
	C1148.614258,121.984489 1149.043335,121.249123 1149.048218,120.677162 
	C1149.108765,113.589523 1149.087769,106.501183 1149.087769,99.399590 
	C1133.333740,99.399590 1118.278076,99.399590 1102.852539,99.399590 
	C1102.852539,106.401749 1102.797119,113.043060 1102.910400,119.681503 
	C1102.927979,120.716362 1103.748047,121.725693 1104.140015,122.768250 
	C1105.215942,125.629837 1107.125122,128.486694 1107.179321,131.374054 
	C1107.551392,151.185471 1107.551025,171.004181 1107.608032,190.820724 
	C1107.613281,192.635391 1107.369629,194.500748 1106.911621,196.256454 
	C1105.927490,200.028564 1102.936768,202.178314 1099.485840,201.438782 
	C1096.837402,200.871231 1094.464966,198.397751 1092.329956,196.389191 
	C1091.591187,195.694290 1091.807007,193.847763 1091.805054,192.526932 
	C1091.776245,171.874496 1091.683716,151.220917 1091.907593,130.570877 
	C1091.935669,127.990448 1093.651733,125.417313 1094.646118,122.864319 
	C1094.992065,121.975998 1095.894165,121.164482 1095.907104,120.308273 
	C1096.012207,113.371307 1095.966064,106.432045 1095.966064,99.320358 
	C1079.483398,99.320358 1063.587891,99.320358 1047.139771,99.320358 
	C1047.139771,106.376152 1047.126953,113.158806 1047.160889,119.941238 
	C1047.164062,120.571800 1047.253662,121.440346 1047.657471,121.794167 
	C1052.483643,126.023361 1051.635010,131.728165 1051.676392,137.153015 
	C1051.820801,156.138062 1051.609863,175.130478 1052.073608,194.106888 
	C1052.414062,208.038055 1058.573364,219.359451 1071.751831,224.588318 
	C1089.724731,231.719559 1108.140747,231.456787 1126.817383,223.436279 
M1491.822388,191.155548 
	C1491.837402,188.656479 1491.948853,186.153671 1491.852295,183.658936 
	C1491.162842,165.858582 1485.030762,157.184265 1468.322998,151.028290 
	C1461.934448,148.674454 1455.280029,147.051544 1448.795044,144.946396 
	C1445.485107,143.871902 1442.113525,142.779449 1439.072632,141.135056 
	C1435.107910,138.991104 1433.613403,133.827133 1435.286133,129.270493 
	C1436.666748,125.509071 1439.574097,123.681229 1443.501343,124.217430 
	C1448.693726,124.926338 1449.919434,128.855530 1450.169067,133.345398 
	C1450.286621,135.458542 1450.403931,137.571671 1450.525024,139.751038 
	C1463.143311,139.751038 1475.234619,139.751038 1487.894531,139.751038 
	C1487.894531,131.524750 1487.562500,123.554413 1488.021729,115.629929 
	C1488.288574,111.024628 1486.394043,108.761703 1482.669312,106.711876 
	C1463.002319,95.888237 1442.052124,94.337479 1420.625732,98.763649 
	C1404.800903,102.032692 1396.080811,111.642326 1394.508423,127.542900 
	C1391.633179,156.616959 1401.019043,166.812256 1424.387451,173.045685 
	C1429.692383,174.460724 1435.060425,175.659073 1440.315063,177.238007 
	C1448.711548,179.761124 1451.916626,184.680008 1451.136108,193.306778 
	C1450.681519,198.332245 1447.679199,201.709015 1443.592529,201.791519 
	C1439.410522,201.875946 1436.187866,198.922653 1435.533691,193.897217 
	C1435.027222,190.006226 1434.995728,186.053375 1434.750610,182.085464 
	C1421.712280,182.085464 1409.125977,182.085464 1395.997437,182.085464 
	C1395.997437,191.494705 1396.396729,200.640350 1395.843384,209.727982 
	C1395.526123,214.937271 1397.541870,217.747620 1401.788696,219.915329 
	C1423.370728,230.931396 1445.824829,232.205139 1468.667480,225.133163 
	C1480.333252,221.521454 1487.451172,212.896317 1490.197510,200.907303 
	C1490.864746,197.993973 1491.237183,195.013092 1491.822388,191.155548 
M540.743713,193.591446 
	C542.742493,193.591553 544.779358,193.351456 546.729309,193.660065 
	C548.639465,193.962372 552.046875,194.832108 552.043518,195.437668 
	C552.030151,197.880707 551.083130,200.366089 550.210510,202.736252 
	C549.795044,203.864502 548.153931,204.752182 548.125488,205.778152 
	C547.933716,212.694946 548.025513,219.619614 548.025513,226.583633 
	C565.174500,226.583633 581.581726,226.583633 598.627136,226.583633 
	C598.627136,219.509628 598.658203,212.725449 598.581543,205.942505 
	C598.573425,205.224304 597.929993,204.514771 597.586670,203.798615 
	C595.695374,199.852737 592.937805,196.090240 592.054993,191.930054 
	C585.805908,162.483566 579.890259,132.965622 574.023621,103.439583 
	C573.344971,100.024040 572.057190,98.886162 568.489929,98.939751 
	C553.835205,99.159904 539.175171,99.031677 524.517090,99.031624 
	C521.750732,99.031609 518.984436,99.031616 516.337402,99.031616 
	C515.847351,100.803871 515.452271,101.909225 515.239868,103.048630 
	C510.790344,126.920517 506.447510,150.812714 501.883209,174.662552 
	C500.230194,183.299881 499.520752,192.558273 495.741821,200.234085 
	C491.265686,209.326050 494.358887,217.872314 493.014130,226.544876 
	C508.220886,226.544876 522.476013,226.544876 537.203186,226.544876 
	C537.203186,219.575958 537.245300,212.944183 537.151489,206.314331 
	C537.139404,205.454849 536.660339,204.233414 535.996765,203.814133 
	C532.764771,201.772125 530.931274,198.607712 532.568176,195.442078 
	C533.331055,193.966522 537.314026,194.155899 540.743713,193.591446 
M1346.566895,164.925049 
	C1343.967651,164.925049 1341.368408,164.925049 1338.204834,164.925049 
	C1338.204834,173.570068 1338.340332,181.534744 1338.168091,189.492767 
	C1337.982300,198.087692 1333.549194,201.221024 1324.582886,198.926910 
	C1324.582886,197.252426 1324.582886,195.449814 1324.582886,193.647186 
	C1324.582764,175.986740 1324.431274,158.324310 1324.660767,140.666840 
	C1324.746582,134.072632 1322.561157,126.830826 1328.622314,121.369881 
	C1328.907471,121.112984 1328.857788,120.415237 1328.858765,119.922577 
	C1328.872803,113.141449 1328.868286,106.360283 1328.868286,99.450859 
	C1312.276733,99.450859 1296.256470,99.450859 1280.001587,99.450859 
	C1280.001587,106.360237 1279.933228,112.851456 1280.063721,119.338692 
	C1280.087646,120.525558 1280.952759,121.684708 1281.373169,122.876549 
	C1282.338379,125.611946 1283.930420,128.323212 1284.083862,131.109451 
	C1284.477051,138.252258 1284.798584,145.485657 1284.117432,152.583878 
	C1282.415527,170.319702 1288.031128,188.377838 1280.413940,206.026550 
	C1277.897705,211.856384 1280.017456,219.687012 1280.017456,226.443115 
	C1311.702393,226.443115 1342.574097,226.443115 1373.387695,226.443115 
	C1373.387695,205.750381 1373.387695,185.511032 1373.387695,164.924957 
	C1364.518433,164.924957 1356.034912,164.924957 1346.566895,164.925049 
M1215.500000,226.891724 
	C1230.578857,226.891724 1245.657715,226.891724 1260.726562,226.891724 
	C1260.726562,205.858734 1260.726562,185.621140 1260.726562,165.302765 
	C1249.019409,165.302765 1237.642578,165.302765 1225.858765,165.302765 
	C1225.858765,173.476913 1226.035522,181.284882 1225.811890,189.081375 
	C1225.558228,197.930710 1221.339600,200.975845 1211.928833,199.079300 
	C1211.928833,197.384476 1211.928833,195.588104 1211.928833,193.791718 
	C1211.928833,178.137711 1211.591553,162.473541 1212.061890,146.833679 
	C1212.322876,138.151138 1210.601440,129.585098 1215.431396,120.708374 
	C1218.469727,115.124458 1215.997681,106.542290 1215.997681,99.268356 
	C1199.489136,99.268356 1183.722534,99.268356 1167.339844,99.268356 
	C1167.339844,106.431702 1167.308716,113.375664 1167.385864,120.318413 
	C1167.394043,121.048195 1168.119751,121.743965 1168.377441,122.501465 
	C1169.567505,125.999916 1171.605835,129.488312 1171.709839,133.028214 
	C1172.105713,146.505722 1172.385376,160.027542 1171.709351,173.482590 
	C1171.175537,184.109192 1174.160645,194.808762 1167.928101,205.498901 
	C1164.840332,210.795029 1167.391479,219.378815 1167.391479,226.182739 
	C1168.426025,226.572540 1168.732544,226.788391 1169.039551,226.789322 
	C1184.192993,226.835052 1199.346558,226.862320 1215.500000,226.891724 
M2018.505371,209.550171 
	C2009.420166,208.798370 2000.335083,208.046570 1990.996094,207.273758 
	C1990.996094,214.444427 1990.996094,221.016510 1990.996094,228.774384 
	C1995.618164,227.901428 1999.815063,226.783264 2004.078369,226.393860 
	C2008.459839,225.993683 2012.906250,226.305054 2018.776611,226.305054 
	C2008.573242,230.276505 1999.789551,233.695389 1991.021240,237.108276 
	C1991.021240,244.392349 1991.021240,251.480377 1991.021240,258.844147 
	C2001.873047,258.178894 2012.468994,257.029724 2023.065918,257.020447 
	C2033.632690,257.011230 2044.200562,258.144684 2054.776367,258.777679 
	C2054.776367,252.008102 2054.776367,245.615250 2054.776367,238.640320 
	C2045.822754,239.622665 2037.231934,240.565231 2028.640991,241.507797 
	C2028.556152,241.060287 2028.471191,240.612778 2028.386230,240.165268 
	C2036.272827,236.869354 2044.181641,233.624924 2052.021973,230.222305 
	C2053.200684,229.710785 2054.885986,228.497971 2054.929443,227.545334 
	C2055.198486,221.652069 2055.064941,215.740448 2055.064941,209.550232 
	C2042.766968,209.550232 2031.135254,209.550232 2018.505371,209.550171 
M2100.502686,206.006546 
	C2101.502441,206.005875 2102.501953,206.012665 2103.501709,206.003433 
	C2115.585449,205.891937 2121.476074,199.819061 2121.165039,187.600128 
	C2121.090332,184.664383 2120.544678,181.740616 2120.168213,178.389114 
	C2122.183838,178.389114 2124.133789,177.936630 2125.712646,178.508286 
	C2127.523926,179.164108 2129.006104,180.727982 2130.631348,181.897385 
	C2129.368408,183.335327 2128.106689,184.774658 2126.841553,186.210678 
	C2125.966064,187.204437 2124.379150,188.157257 2124.325928,189.190842 
	C2124.063477,194.295425 2124.206543,199.420853 2124.206543,205.118286 
	C2127.398926,205.118286 2130.062500,204.816605 2132.630127,205.184464 
	C2137.228027,205.843155 2139.650146,203.830429 2141.313721,199.732834 
	C2145.295410,189.925919 2145.850098,179.973221 2142.755615,169.935593 
	C2140.839111,163.718521 2136.500977,159.273605 2129.838623,159.044052 
	C2117.224854,158.609482 2104.572510,158.570969 2091.962158,159.050598 
	C2085.101074,159.311584 2080.159424,163.796814 2079.217773,170.495804 
	C2078.190674,177.807404 2077.855957,185.455978 2078.821777,192.745361 
	C2079.948242,201.246857 2085.414062,205.165787 2094.052002,205.870743 
	C2095.875488,206.019562 2097.715088,205.966476 2100.502686,206.006546 
M2079.177246,274.988281 
	C2081.689697,282.511597 2087.434326,285.451019 2094.839600,285.881104 
	C2097.991455,286.064148 2101.160889,286.017334 2104.320557,285.969696 
	C2115.048096,285.807953 2121.002197,279.993713 2121.146240,269.289093 
	C2121.194092,265.743195 2120.634033,262.189087 2120.334473,258.419617 
	C2122.611328,258.419617 2124.748779,257.938293 2126.492432,258.560547 
	C2128.102783,259.135162 2130.128174,260.740662 2130.390137,262.180115 
	C2130.587158,263.260803 2128.305420,264.822662 2127.077393,266.123505 
	C2126.166504,267.088501 2124.400879,267.938416 2124.350586,268.908875 
	C2124.078125,274.160706 2124.221436,279.434113 2124.221436,285.077698 
	C2127.566406,285.077698 2130.254395,284.763000 2132.839111,285.146271 
	C2137.538086,285.843079 2139.786133,283.540588 2141.392578,279.528229 
	C2145.179199,270.070343 2145.771973,260.463318 2143.003418,250.714813 
	C2141.049561,243.834412 2136.531494,239.147156 2129.218506,238.923386 
	C2116.784668,238.542892 2104.315674,238.530609 2091.888428,239.032318 
	C2085.020264,239.309586 2080.034912,243.800552 2079.228027,250.496857 
	C2078.288818,258.293610 2078.988525,266.287781 2079.177246,274.988281 
M1993.170288,339.180786 
	C1998.576416,347.212860 2006.731323,346.737335 2014.742065,345.718719 
	C2022.148315,344.776947 2025.615967,339.328217 2027.500366,332.667297 
	C2028.403931,329.473694 2029.129883,326.226990 2030.115112,323.060028 
	C2031.488892,318.643616 2034.673828,316.629883 2038.863647,317.912231 
	C2040.254028,318.337738 2042.075684,320.157013 2042.118896,321.394226 
	C2042.162354,322.638947 2040.478149,324.553070 2039.120483,325.094788 
	C2037.081055,325.908508 2034.666504,325.781586 2032.531616,326.039978 
	C2032.531616,332.520813 2032.531616,338.624969 2032.531616,345.135010 
	C2037.257690,345.135010 2041.735352,344.909424 2046.176636,345.213531 
	C2049.187256,345.419617 2050.704590,344.141449 2051.996826,341.700317 
	C2056.739746,332.740479 2057.202881,323.156342 2055.651123,313.508575 
	C2053.991699,303.192780 2047.786377,298.061188 2037.210327,297.196625 
	C2025.850220,296.267975 2020.008301,299.954407 2016.263062,310.572510 
	C2015.215454,313.542633 2014.557861,316.649567 2013.533203,319.628967 
	C2012.948730,321.328613 2012.379761,323.462097 2011.082764,324.370880 
	C2009.710571,325.332245 2007.332764,325.608826 2005.683228,325.148560 
	C2004.656616,324.862183 2003.298096,322.341248 2003.643066,321.382721 
	C2004.136230,320.012512 2005.931030,318.922089 2007.401123,318.156036 
	C2008.447632,317.610687 2009.875000,317.796326 2011.087646,317.660706 
	C2011.087646,311.388428 2011.087646,305.432861 2011.087646,299.117828 
	C2006.726440,299.117828 2002.584961,298.963013 1998.468140,299.213684 
	C1997.257568,299.287384 1995.585327,300.220917 1995.025391,301.250275 
	C1988.474731,313.294586 1987.150757,325.721344 1993.170288,339.180786 
M2012.533691,101.805145 
	C2011.762451,100.525269 2011.042725,98.175385 2010.211914,98.135452 
	C2003.793579,97.827003 1997.353516,97.965515 1991.084351,97.965515 
	C1991.084351,114.360428 1991.084351,130.105408 1991.084351,146.127518 
	C1992.193359,146.127518 1993.015259,146.228531 1993.804810,146.110870 
	C1998.303467,145.440369 2002.780396,144.242477 2007.290771,144.108856 
	C2017.608643,143.803207 2027.941650,143.999619 2038.268433,144.022659 
	C2039.254761,144.024857 2040.249756,144.190399 2041.224976,144.367401 
	C2045.631714,145.167145 2050.032715,145.998352 2054.745117,146.875809 
	C2054.745117,129.880859 2054.745117,114.020615 2054.745117,98.241432 
	C2046.999390,98.241432 2039.582886,98.241432 2032.242554,98.241432 
	C2032.242554,104.405991 2032.242554,110.285744 2032.242554,116.120300 
	C2041.424683,117.069092 2041.667969,117.285225 2040.708252,123.477127 
	C2036.787109,123.477127 2032.856201,123.477127 2028.473022,123.477127 
	C2028.473022,119.275032 2028.473022,115.334557 2028.473022,111.188873 
	C2024.115723,111.188873 2020.213623,111.188873 2015.731934,111.188873 
	C2015.731934,115.443718 2015.731934,119.484192 2015.731934,123.469116 
	C2011.714233,123.469116 2008.284424,123.469116 2004.821289,123.469116 
	C2003.160156,116.575417 2008.313477,116.718689 2012.533813,115.927521 
	C2012.533813,111.369408 2012.533813,107.054306 2012.533691,101.805145 
M1995.036133,195.467392 
	C1998.625610,196.983292 2002.157471,199.617264 2005.815430,199.806168 
	C2016.938232,200.380554 2028.114014,200.190292 2039.261108,199.940552 
	C2045.897095,199.791885 2051.408936,196.826706 2053.797852,190.392715 
	C2058.122070,178.745789 2057.303467,167.204910 2051.412598,156.198196 
	C2050.738525,154.938644 2049.092285,153.434402 2047.837769,153.378983 
	C2041.401855,153.094635 2034.946655,153.247330 2028.299316,153.247330 
	C2028.299316,159.957947 2028.299316,166.180237 2028.299316,172.892059 
	C2031.849365,172.892059 2035.197388,172.534271 2038.403564,173.052567 
	C2039.867920,173.289291 2041.052979,175.253418 2042.364624,176.434113 
	C2041.056030,177.628418 2039.775513,179.820694 2038.434204,179.858414 
	C2028.121460,180.148331 2017.793335,180.151566 2007.480347,179.867020 
	C2006.078857,179.828354 2004.734985,177.699768 2003.364502,176.538879 
	C2004.833374,175.314224 2006.128662,173.560608 2007.817627,173.006195 
	C2009.696289,172.389404 2011.933594,172.864929 2014.004639,172.864929 
	C2014.004639,165.968353 2014.004639,159.858337 2014.004639,153.242661 
	C2008.661987,153.242661 2003.540405,153.164627 1998.425171,153.311951 
	C1997.462524,153.339676 1996.160522,154.022476 1995.632446,154.814621 
	C1988.932739,164.863770 1986.268677,184.973572 1995.036133,195.467392 
M2002.632812,290.056946 
	C2004.343506,289.569733 2006.048828,288.683228 2007.765625,288.660889 
	C2017.926636,288.528442 2028.090088,288.581757 2038.252686,288.617859 
	C2039.404907,288.621948 2040.564209,288.863678 2041.706055,289.072815 
	C2045.942871,289.848938 2050.173828,290.657440 2054.837158,291.534698 
	C2054.837158,282.407684 2054.837158,274.509460 2054.837158,265.495300 
	C2033.423340,269.551086 2012.248047,269.328522 1991.091064,265.628754 
	C1991.091064,274.724731 1991.091064,282.633728 1991.091064,290.516968 
	C1994.903931,290.516968 1998.382690,290.516968 2002.632812,290.056946 
M2092.511963,102.400032 
	C2088.096680,102.400032 2083.681396,102.400032 2079.290527,102.400032 
	C2079.290527,110.296066 2079.290527,117.363159 2079.290527,125.532913 
	C2100.648926,121.638939 2121.679688,121.761856 2142.792969,125.384384 
	C2142.792969,116.363434 2142.792969,108.520035 2142.792969,100.262489 
	C2140.381104,100.262489 2138.389404,100.068420 2136.448730,100.300369 
	C2131.432617,100.899834 2126.454590,102.125557 2121.433105,102.304810 
	C2112.135254,102.636719 2102.817139,102.400398 2092.511963,102.400032 
M2118.471436,341.892029 
	C2126.557861,342.626068 2134.644287,343.360107 2142.821289,344.102356 
	C2142.821289,335.523926 2142.821289,327.798218 2142.821289,319.654999 
	C2139.935059,319.654999 2137.435791,319.434906 2134.989502,319.700073 
	C2129.618164,320.282318 2124.286621,321.588165 2118.914795,321.738892 
	C2107.427490,322.061218 2095.924561,321.826538 2084.428223,321.849518 
	C2082.682373,321.853027 2080.936768,322.014679 2079.275879,322.098877 
	C2079.275879,329.662811 2079.275879,336.587311 2079.275879,343.968353 
	C2081.217041,343.968353 2082.866211,344.136841 2084.469482,343.936859 
	C2089.317627,343.332031 2094.129639,342.251068 2098.990479,341.976135 
	C2105.135742,341.628540 2111.315430,341.892029 2118.471436,341.892029 
z"/>
<path fill="#ffffff" opacity="1.000000" stroke="none" 
	d="
M378.068390,261.866943 
	C749.494446,261.866943 1120.429443,261.866943 1491.644531,261.866943 
	C1491.644531,289.942780 1491.644531,317.690948 1491.644531,345.778381 
	C1117.798950,345.778381 743.931824,345.778381 369.780670,345.778381 
	C369.780670,318.056702 369.780670,290.296997 369.780670,261.866943 
	C372.393646,261.866943 374.985504,261.866943 378.068390,261.866943 
M430.080811,273.341675 
	C426.865845,272.053833 423.682587,269.756744 420.430359,269.654572 
	C407.024658,269.233368 393.598053,269.478210 380.213806,269.478210 
	C380.213806,292.794037 380.213806,316.165680 380.213806,339.669830 
	C392.043488,339.669830 403.517059,339.859772 414.980377,339.598938 
	C421.901672,339.441437 428.338837,337.521210 433.918793,332.951385 
	C442.682587,325.774048 444.239594,306.200104 428.135406,301.628235 
	C427.406952,301.421478 426.730469,301.031769 425.905396,300.673218 
	C437.242371,292.351044 438.938904,282.325897 430.080811,273.341675 
M1032.839111,298.445221 
	C1038.245605,294.362183 1040.570557,288.998138 1039.334961,282.287445 
	C1037.885132,274.413269 1031.457031,269.568481 1021.121643,269.150879 
	C1011.476135,268.761169 1001.807617,268.936676 992.149231,268.872986 
	C989.397217,268.854858 986.645020,268.870209 984.067261,268.870209 
	C984.067261,292.869629 984.067261,316.127808 984.067261,338.928467 
	C997.947632,338.928467 1011.583618,339.551422 1025.130005,338.718079 
	C1034.796387,338.123413 1042.409668,330.573608 1043.943359,322.556213 
	C1046.019409,311.702606 1042.217896,305.729095 1029.757080,300.587280 
	C1030.668457,299.958466 1031.455688,299.415344 1032.839111,298.445221 
M739.269775,303.170715 
	C733.301025,300.782745 727.408630,298.173096 721.337891,296.081177 
	C716.961548,294.573151 712.226013,294.079315 707.902649,292.460266 
	C706.289551,291.856140 704.595886,289.426605 704.411438,287.674438 
	C704.255554,286.193787 705.898743,284.025513 707.342041,283.005402 
	C709.008301,281.827759 711.285950,281.248779 713.371887,280.977722 
	C722.121216,279.840851 730.206482,281.923248 737.718018,286.465210 
	C739.154297,287.333649 740.688660,288.039642 742.855042,289.175751 
	C742.855042,286.152954 742.854980,284.172089 742.855042,282.191223 
	C742.855591,271.486206 742.894287,271.291168 732.434998,269.215729 
	C720.524109,266.852264 708.596497,266.043243 697.316101,271.955475 
	C689.651550,275.972595 684.976257,282.055481 685.405212,291.111694 
	C685.844055,300.376709 690.957275,306.306213 699.519958,309.039001 
	C706.149963,311.154938 713.039795,312.442871 719.753418,314.316437 
	C723.164307,315.268402 726.819763,316.669312 726.669250,321.030884 
	C726.520386,325.345825 722.970093,326.562347 719.379761,327.246826 
	C708.812500,329.261566 699.307617,326.316498 690.336121,320.936035 
	C688.838745,320.038025 687.309875,319.192352 685.241455,318.004181 
	C685.241455,324.362610 685.241455,329.936157 685.241455,336.246277 
	C691.585266,337.716248 697.955139,339.813904 704.479980,340.564209 
	C715.340332,341.813049 726.191040,341.410919 735.780945,335.030121 
	C747.169373,327.452576 748.935425,313.314331 739.269775,303.170715 
M1147.090332,338.983215 
	C1148.735840,334.653473 1149.220825,328.741394 1152.355713,326.442108 
	C1155.447998,324.173950 1161.220947,325.409973 1165.819824,325.375824 
	C1177.724365,325.287384 1177.656250,325.373413 1182.149414,336.690948 
	C1182.667480,337.995911 1184.414551,339.601776 1185.680786,339.683197 
	C1190.920898,340.020172 1196.195190,339.824554 1202.039185,339.824554 
	C1193.170410,315.815277 1184.512329,292.376129 1175.828003,268.866241 
	C1169.997681,268.866241 1164.494873,269.140442 1159.036011,268.768280 
	C1155.489258,268.526489 1154.179443,269.962128 1153.066284,273.052032 
	C1146.487305,291.313171 1139.700439,309.499359 1132.991577,327.713776 
	C1131.575073,331.559692 1130.191650,335.417816 1128.650024,339.663879 
	C1135.035522,339.663879 1140.809937,339.663879 1147.090332,338.983215 
M590.374146,339.827179 
	C592.777588,339.827179 595.180969,339.827179 598.075684,339.827179 
	C591.148743,320.986847 584.479431,302.784729 577.756653,284.602386 
	C575.860229,279.473450 575.176025,272.353516 571.451416,269.864807 
	C567.502380,267.226105 560.573181,269.274261 554.990601,268.773041 
	C551.326721,268.444061 550.179626,270.183105 549.100525,273.168091 
	C542.389465,291.731110 535.517517,310.235962 528.699768,328.760437 
	C527.400513,332.290833 526.104797,335.822571 524.633484,339.827179 
	C526.967773,339.827179 528.608459,339.850586 530.248291,339.822571 
	C534.390564,339.751831 539.437134,341.065674 542.406921,339.157043 
	C545.097595,337.427795 545.294678,332.060028 547.062012,328.532379 
	C547.758728,327.141693 549.690491,325.559265 551.129028,325.489471 
	C557.769226,325.167328 564.442322,325.168396 571.082703,325.488861 
	C572.518311,325.558105 574.480286,327.133850 575.136536,328.519348 
	C576.826660,332.087494 577.921143,335.937805 579.307739,339.827179 
	C582.792847,339.827179 586.112976,339.827179 590.374146,339.827179 
M837.862793,322.498505 
	C837.862793,328.114655 837.862793,333.730804 837.862793,339.451782 
	C855.182983,339.451782 872.024841,339.451782 888.793579,339.451782 
	C888.793579,334.815521 888.793579,330.556549 888.793579,325.906433 
	C877.798218,325.906433 867.063416,325.906433 856.248535,325.906433 
	C856.248535,319.914459 856.248535,314.328308 856.248535,308.190491 
	C866.535767,308.190491 876.583252,308.190491 886.570435,308.190491 
	C886.570435,303.523834 886.570435,299.415558 886.570435,294.743774 
	C876.295349,294.743774 866.246948,294.743774 856.253967,294.743774 
	C856.253967,290.389618 856.253967,286.614929 856.253967,282.424438 
	C867.256348,282.424438 878.013428,282.424438 888.814697,282.424438 
	C888.814697,277.742126 888.814697,273.483154 888.814697,269.228455 
	C871.714722,269.228455 854.862366,269.228455 837.862793,269.228455 
	C837.862793,286.893219 837.862793,304.196228 837.862793,322.498505 
M1309.751099,305.499939 
	C1309.751099,293.390930 1309.751099,281.281952 1309.751099,269.250916 
	C1303.249878,269.250916 1297.365723,269.250916 1291.545898,269.250916 
	C1291.545898,292.900391 1291.545898,316.149750 1291.545898,339.571594 
	C1308.585693,339.571594 1325.317261,339.571594 1342.186646,339.571594 
	C1342.186646,334.927460 1342.186646,330.556000 1342.186646,325.811005 
	C1331.209106,325.811005 1320.602905,325.811005 1309.751099,325.811005 
	C1309.751099,319.121643 1309.751099,312.810699 1309.751099,305.499939 
M1450.645752,306.499878 
	C1450.645752,294.052948 1450.645752,281.606049 1450.645752,269.253235 
	C1444.152466,269.253235 1438.263428,269.253235 1432.462280,269.253235 
	C1432.462280,292.900208 1432.462280,316.147095 1432.462280,339.580872 
	C1449.491577,339.580872 1466.220703,339.580872 1483.060181,339.580872 
	C1483.060181,334.941986 1483.060181,330.563690 1483.060181,325.816162 
	C1472.099487,325.816162 1461.488281,325.816162 1450.645630,325.816162 
	C1450.645630,319.461761 1450.645630,313.480804 1450.645752,306.499878 
z"/>
<path fill="#ffffff" opacity="1.000000" stroke="none" 
	d="
M1791.004028,346.078186 
	C1786.355469,346.078186 1782.206665,346.078186 1777.638672,346.078186 
	C1778.398560,339.738953 1778.804077,333.656586 1780.013306,327.738342 
	C1780.433472,325.681885 1782.501953,323.049133 1784.409790,322.387939 
	C1789.325317,320.684235 1791.725342,317.112305 1794.077759,312.939636 
	C1797.561035,306.760529 1800.820923,300.253937 1805.394043,294.933990 
	C1814.067749,284.843964 1816.682373,274.479431 1810.076416,263.111176 
	C1820.027222,263.111176 1830.055420,263.329224 1840.068359,263.032013 
	C1846.398682,262.844116 1848.817627,257.700043 1851.045288,252.784836 
	C1853.156494,248.126740 1850.745850,244.601242 1847.505127,241.783478 
	C1840.497803,235.690964 1838.976562,227.437775 1837.907471,218.945618 
	C1836.666382,209.087723 1835.493652,199.221222 1834.308716,189.501373 
	C1839.763306,188.189804 1846.343628,187.106583 1852.585327,185.013489 
	C1871.599609,178.637405 1876.881348,163.099472 1865.717651,146.438019 
	C1857.918945,134.798538 1846.820923,127.602028 1832.244629,123.297180 
	C1833.549438,125.028099 1834.094482,125.852913 1834.743408,126.585686 
	C1835.515381,127.457207 1836.417603,128.213104 1837.192017,129.082657 
	C1840.731689,133.057129 1844.605591,136.795807 1847.694702,141.096695 
	C1854.010986,149.890717 1850.607300,158.881897 1840.090698,161.780212 
	C1836.894409,162.661087 1833.577393,163.138458 1830.292480,163.652664 
	C1827.009155,164.166641 1823.696777,164.495331 1820.075684,164.945206 
	C1820.075684,166.337097 1820.075684,167.632706 1820.075684,169.474182 
	C1803.432739,157.324738 1785.310669,160.871231 1767.256348,162.112274 
	C1757.596558,162.776245 1748.002563,160.370178 1740.809448,153.170959 
	C1736.161133,148.518463 1735.955566,142.374557 1740.237671,137.279953 
	C1744.487305,132.224136 1749.590332,127.864449 1754.484497,123.380005 
	C1757.136475,120.950012 1760.133667,118.896652 1762.975220,116.673325 
	C1762.791626,116.249542 1762.608032,115.825760 1762.424438,115.401978 
	C1757.473389,116.917511 1752.404663,118.131378 1747.594360,120.007767 
	C1735.398071,124.765129 1724.921631,131.981949 1717.630859,143.085083 
	C1707.272705,158.859192 1710.856201,172.912552 1727.407349,181.888840 
	C1730.867188,183.765152 1734.559448,185.212891 1736.952881,186.311295 
	C1735.538086,192.943466 1734.165161,199.084885 1732.937378,205.255188 
	C1732.292114,208.497620 1731.502441,211.191589 1727.568481,212.118896 
	C1725.737061,212.550583 1723.576172,214.299850 1722.820190,216.007584 
	C1721.292847,219.458664 1718.971558,221.280518 1715.572998,222.709839 
	C1709.151489,225.410431 1702.815308,228.402420 1696.734131,231.793930 
	C1692.445068,234.185989 1688.635010,237.436935 1683.462280,241.123077 
	C1681.061157,236.133667 1678.019653,231.084518 1676.116821,225.637589 
	C1668.229370,203.059601 1660.705200,180.354828 1653.009888,157.709442 
	C1646.810791,139.466568 1640.551147,121.244263 1634.337158,103.006416 
	C1633.704224,101.148895 1633.200562,99.247299 1632.472290,96.816574 
	C1634.738403,96.816574 1636.526245,96.816574 1638.314087,96.816574 
	C1729.285645,96.816589 1820.257202,96.788933 1911.228638,96.885429 
	C1916.675903,96.891205 1922.298828,97.204018 1927.535767,98.554047 
	C1943.342651,102.628960 1953.806641,116.529861 1953.854370,133.854446 
	C1954.016479,192.668854 1954.044312,251.484543 1953.829102,310.298645 
	C1953.751221,331.558228 1937.646118,345.821381 1913.966064,346.025848 
	C1888.975708,346.241699 1863.982056,346.077057 1838.989868,346.078064 
	C1823.161133,346.078674 1807.332397,346.078186 1791.004028,346.078186 
M1883.546387,312.936890 
	C1884.719116,313.859650 1885.798706,314.944916 1887.079346,315.679321 
	C1896.847412,321.281433 1910.021240,315.424438 1911.096680,305.049561 
	C1911.777832,298.478088 1908.203613,292.659485 1901.889648,290.061371 
	C1895.221558,287.317596 1887.296753,289.195984 1882.830444,294.579071 
	C1878.488403,299.812408 1878.562012,305.830017 1883.546387,312.936890 
z"/>
<path fill="#ed1c24" opacity="1.000000" stroke="none" 
	d="
M197.123474,97.929008 
	C241.071075,97.928879 284.530762,97.928879 328.302917,97.928879 
	C328.302917,103.180084 328.302917,107.923500 328.302917,112.817146 
	C322.067352,113.185867 316.098602,113.291870 310.191132,113.949066 
	C302.365540,114.819641 298.978424,118.290085 297.962097,126.026237 
	C297.486145,129.649017 297.145111,133.320221 297.141937,136.969818 
	C297.092499,193.802002 297.090942,250.634247 297.148651,307.466431 
	C297.152527,311.281128 297.511444,315.125885 298.069122,318.902924 
	C299.049377,325.541687 302.423401,329.112671 309.084137,329.952850 
	C315.323639,330.739899 321.647552,330.857666 328.275787,331.292358 
	C328.275787,336.010468 328.275787,340.753845 328.275787,345.805298 
	C282.640472,345.805298 237.235413,345.805298 191.492676,345.805298 
	C191.492676,341.037872 191.492676,336.449951 191.492676,331.632812 
	C197.456161,330.744537 203.564484,330.235046 209.480759,328.884369 
	C235.423035,322.961853 252.999954,301.223267 252.915405,275.530853 
	C252.827789,248.912613 233.396820,226.757889 205.875305,223.158310 
	C194.545380,221.676437 182.953110,222.065308 171.475723,221.883240 
	C159.508881,221.693375 147.536697,221.840866 135.274155,221.840866 
	C135.087708,223.507706 134.821793,224.776993 134.822006,226.046249 
	C134.826675,253.545578 134.848907,281.044922 134.907837,308.544189 
	C134.913895,311.371674 134.946167,314.231995 135.355759,317.019836 
	C136.824722,327.018524 140.813583,330.539368 150.973221,330.757416 
	C157.770889,330.903290 164.574203,330.785187 171.712280,330.785187 
	C171.712280,335.975250 171.712280,340.705536 171.712280,345.775513 
	C127.539009,345.775513 83.481415,345.775513 39.069958,345.775513 
	C39.069958,341.019196 39.069958,336.431580 39.069958,330.972198 
	C43.094570,330.972198 47.185116,331.081970 51.267982,330.951508 
	C63.320995,330.566315 66.815964,327.394257 68.410530,315.453003 
	C68.718246,313.148651 68.884117,310.807220 68.885147,308.482788 
	C68.910538,250.817627 68.911896,193.152466 68.881042,135.487320 
	C68.879715,132.998642 68.653687,130.493713 68.322723,128.024445 
	C66.848228,117.023552 63.739315,113.985214 52.672737,113.187820 
	C48.238380,112.868317 43.761768,113.135246 39.116268,113.135246 
	C38.937752,111.543350 38.747795,110.589050 38.738239,109.632942 
	C38.701809,105.987137 38.723537,102.340759 38.723537,98.313454 
	C83.172188,98.313454 127.240707,98.313454 171.683533,98.313454 
	C171.683533,103.014648 171.683533,107.739296 171.683533,113.273521 
	C169.738403,113.273521 167.819397,113.272293 165.900406,113.273743 
	C160.733856,113.277649 155.559937,113.107552 150.402359,113.324944 
	C140.647705,113.736099 136.942398,117.046410 135.448730,126.620697 
	C134.989151,129.566559 134.924133,132.595001 134.913330,135.586487 
	C134.841171,155.585770 134.828506,175.585281 134.813705,195.584732 
	C134.812851,196.737335 134.962509,197.890045 135.043304,199.059738 
	C135.587143,199.315079 136.025681,199.703140 136.460464,199.698990 
	C157.945282,199.493057 179.489502,200.153687 200.895554,198.734207 
	C218.175781,197.588303 231.468567,188.409241 237.996658,171.724899 
	C244.093872,156.141800 241.473083,141.496613 230.657166,128.724655 
	C221.701935,118.149902 209.447083,114.254669 196.079865,113.138748 
	C194.927628,113.042549 193.774170,112.960716 192.242310,112.843124 
	C192.242310,108.045845 192.242310,103.323448 192.242310,98.245361 
	C193.744537,98.137230 195.190048,98.033188 197.123474,97.929008 
z"/>
<path fill="#ffffff" opacity="1.000000" stroke="none" 
	d="
M1610.616455,115.367355 
	C1632.038696,158.012161 1653.199707,200.371582 1674.581909,242.619019 
	C1676.851074,247.102509 1676.032349,249.909912 1671.936890,251.903458 
	C1662.486816,256.503418 1656.925537,264.584839 1651.485107,273.115570 
	C1648.223511,278.229828 1643.295044,282.251099 1639.612915,287.138306 
	C1637.309692,290.195465 1635.380615,293.785034 1634.290649,297.436310 
	C1633.167358,301.199066 1633.401978,305.347748 1632.787109,309.287750 
	C1632.278809,312.545776 1633.576172,314.250061 1636.579102,315.259094 
	C1641.134399,316.789764 1645.545654,317.207916 1650.155396,315.302826 
	C1661.849121,310.469940 1673.372803,305.399078 1682.003296,295.891602 
	C1682.684082,301.739563 1683.481567,307.178436 1683.916626,312.646118 
	C1684.636841,321.698395 1680.271851,329.317902 1676.854492,337.257965 
	C1673.991943,343.908875 1670.012085,346.471771 1662.253052,346.322815 
	C1630.943237,345.721527 1599.614868,346.180878 1568.295044,345.984070 
	C1554.243896,345.895782 1542.205322,340.886322 1535.660767,327.804291 
	C1532.635254,321.756592 1530.552612,314.523376 1530.506836,307.810822 
	C1530.111938,250.002609 1530.202637,192.190384 1530.320068,134.379700 
	C1530.364380,112.593132 1544.304688,98.358910 1566.933105,97.073944 
	C1577.396851,96.479744 1587.918213,96.772751 1598.409180,96.935814 
	C1599.801880,96.957458 1601.733643,98.272125 1602.449463,99.535454 
	C1605.313110,104.589485 1607.795532,109.859528 1610.616455,115.367355 
z"/>
<path fill="#ed1c24" opacity="1.000000" stroke="none" 
	d="
M430.069275,174.251068 
	C425.243713,173.391098 420.530396,172.998428 415.790070,172.603500 
	C415.790070,182.008774 413.384766,191.703751 416.414673,199.202621 
	C419.993683,208.060425 418.383606,216.359573 419.207794,224.874420 
	C419.250732,225.318237 418.937073,225.796570 418.691650,226.565140 
	C402.996185,226.565140 387.262451,226.565140 370.832245,226.565140 
	C370.832245,219.490082 368.503998,211.376724 371.303955,205.871613 
	C377.657471,193.379562 374.118225,180.753098 374.835907,168.267822 
	C375.570801,155.482269 375.002502,142.620239 374.928070,129.792114 
	C374.920563,128.499527 374.767395,126.914452 374.034210,125.965408 
	C367.643005,117.692314 372.367340,108.368530 370.464111,99.377914 
	C372.640045,99.220268 373.930481,99.047173 375.221130,99.045456 
	C389.678467,99.026154 404.135834,99.033264 419.066650,99.033264 
	C419.066650,106.770927 421.557953,115.393997 418.497681,120.970535 
	C413.593719,129.906784 416.269379,138.476761 414.800385,147.565674 
	C419.966705,147.565674 424.684601,147.565674 430.333527,147.565674 
	C428.823212,139.067520 433.493988,129.929657 426.652405,121.978783 
	C426.097992,121.334480 426.039856,120.121849 426.032379,119.171082 
	C425.981262,112.698036 426.005585,106.224388 426.005585,99.393768 
	C442.266937,99.393768 458.170105,99.393768 474.817749,99.393768 
	C474.817749,106.426804 477.287079,114.845161 474.329681,120.345940 
	C467.036560,133.911118 471.631866,147.740585 470.479187,161.332016 
	C469.637482,171.256973 470.281708,181.310883 470.329865,191.307007 
	C470.351471,195.798477 470.171936,200.360886 474.038330,203.790268 
	C474.645782,204.329041 474.827942,205.590210 474.837463,206.521118 
	C474.903625,213.008347 474.872437,219.496567 474.872437,226.436737 
	C458.590851,226.436737 442.576813,226.436737 426.017639,226.436737 
	C426.017639,219.545059 426.016388,212.761398 426.021332,205.977737 
	C426.021576,205.646652 425.949219,205.212051 426.123138,204.999420 
	C433.701385,195.733963 428.963776,184.826096 430.069275,174.251068 
z"/>
<path fill="#ed1c24" opacity="1.000000" stroke="none" 
	d="
M1006.023682,224.220200 
	C1000.738098,225.165054 995.837585,226.629395 990.918762,226.693726 
	C969.255920,226.976913 947.587891,226.858643 925.921692,226.870575 
	C925.274048,226.870941 924.626282,226.702484 923.239868,226.510406 
	C923.239868,219.594070 923.232117,212.663635 923.256958,205.733307 
	C923.258667,205.265381 923.353455,204.570572 923.661316,204.364532 
	C929.685608,200.332764 928.203979,194.090469 928.240295,188.424118 
	C928.354553,170.591705 928.304016,152.758072 928.266663,134.925003 
	C928.256653,130.135010 928.879639,125.104965 923.990479,121.829872 
	C923.467957,121.479889 923.248413,120.367661 923.241882,119.605980 
	C923.185120,112.975685 923.209167,106.344704 923.209167,99.413658 
	C924.923645,99.259979 926.198303,99.046638 927.472961,99.046280 
	C947.972656,99.040451 968.473083,98.969017 988.971313,99.149879 
	C993.429016,99.189209 997.978455,99.735565 1002.313049,100.771118 
	C1015.639832,103.955017 1023.132874,112.976273 1023.951538,126.616058 
	C1024.199829,130.751999 1024.225708,134.993774 1023.600037,139.071518 
	C1022.022766,149.353165 1015.818481,156.056870 1004.833862,159.965164 
	C1024.958252,165.603104 1027.089233,180.380692 1025.851807,196.533112 
	C1024.870605,209.341660 1019.544739,219.612671 1006.023682,224.220200 
M968.316895,196.204712 
	C968.799255,197.482407 968.915222,199.373795 969.833252,199.921875 
	C972.504517,201.516724 980.354797,199.578827 982.279297,196.843918 
	C986.267395,191.176208 985.829834,184.844894 983.876526,178.686554 
	C982.146057,173.231033 977.129883,173.036453 972.421326,172.541611 
	C969.445007,172.228851 968.177002,173.143433 968.265198,176.319839 
	C968.440552,182.631012 968.316345,188.950516 968.316895,196.204712 
M968.310547,130.874939 
	C968.311523,135.523956 968.201355,140.177383 968.385620,144.819138 
	C968.436462,146.098785 969.023621,148.013870 969.951355,148.486954 
	C973.736755,150.417358 982.120667,146.869385 983.659485,142.991608 
	C987.409241,133.542191 982.776733,126.423103 972.750122,125.683937 
	C969.116150,125.416039 967.835999,126.526581 968.310547,130.874939 
z"/>
<path fill="#ed1c24" opacity="1.000000" stroke="none" 
	d="
M699.351990,162.365387 
	C699.982117,163.200516 700.808777,164.016022 701.796997,164.342438 
	C710.270020,167.141129 713.749756,173.373566 713.961670,181.857193 
	C714.061523,185.854767 713.901062,189.861832 714.098267,193.852753 
	C714.203613,195.984070 714.103088,198.720840 715.321716,200.103806 
	C722.440918,208.183304 717.314880,217.565445 719.362793,226.890427 
	C713.624390,226.890427 708.684875,226.890442 703.745361,226.890442 
	C696.246094,226.890427 688.732788,226.615158 681.253052,226.997452 
	C677.018311,227.213898 675.086792,225.904556 674.906738,221.683426 
	C674.609131,214.705994 674.121338,207.736877 673.792419,200.760544 
	C673.573120,196.108063 673.809509,191.412201 673.275085,186.801437 
	C672.383911,179.111862 668.656189,176.568649 660.183838,177.555069 
	C660.183838,184.130188 660.160339,190.755661 660.214600,197.380463 
	C660.221130,198.180008 660.436646,199.142334 660.912720,199.748657 
	C667.362488,207.963593 662.890503,217.352600 664.488098,226.520477 
	C648.087280,226.520477 632.350586,226.520477 615.794189,226.520477 
	C615.794189,219.586563 613.687256,211.766342 616.189392,205.918167 
	C623.681702,188.406921 618.234314,170.496780 619.902466,152.900757 
	C620.497437,146.624466 620.398438,140.209427 619.850464,133.924484 
	C619.508301,130.000702 617.741638,126.199699 616.597717,122.348495 
	C616.367065,121.571754 615.834290,120.819069 615.827393,120.051811 
	C615.765930,113.257156 615.791687,106.461693 615.791687,99.945610 
	C616.551819,99.505508 616.833191,99.199188 617.111694,99.201790 
	C640.922546,99.423820 664.770203,98.945114 688.531616,100.155472 
	C705.872498,101.038780 715.476074,112.404900 716.176208,129.709732 
	C716.297180,132.700531 716.265381,135.716034 716.034485,138.699265 
	C715.182251,149.709473 710.550232,158.137024 699.351990,162.365387 
M671.138489,127.141167 
	C667.587646,126.414490 664.036804,125.687805 660.419067,124.947433 
	C660.419067,134.599487 660.419067,142.966187 660.419067,151.496780 
	C665.705261,151.735962 670.609924,151.969879 673.686279,147.142380 
	C677.010376,141.926147 675.984192,132.520721 671.138489,127.141167 
z"/>
<path fill="#ed1c24" opacity="1.000000" stroke="none" 
	d="
M792.996094,99.031334 
	C799.642822,99.338181 805.829712,99.307396 811.930725,100.015785 
	C828.987122,101.996201 839.360779,112.565376 839.813904,129.751450 
	C840.389099,151.565140 840.339539,173.414124 839.838135,195.231308 
	C839.453674,211.960419 827.445557,224.507309 810.635864,225.894623 
	C798.380920,226.906036 786.019165,226.704575 773.702637,226.863739 
	C762.886353,227.003494 752.066895,226.892929 740.415100,226.892929 
	C740.415100,219.486740 740.415100,212.401398 740.415100,205.316071 
	C749.754272,195.217880 744.868652,182.828049 745.470947,171.473419 
	C746.201904,157.693161 745.592651,143.828094 745.160156,130.012344 
	C745.081665,127.504929 743.072815,125.054825 741.940613,122.584938 
	C741.419067,121.447113 740.421631,120.335587 740.395020,119.194511 
	C740.244263,112.727097 740.322021,106.254372 740.322021,99.031082 
	C757.997620,99.031082 775.247375,99.031082 792.996094,99.031334 
M785.730408,179.499786 
	C785.730408,186.238785 785.730408,192.977768 785.730408,199.624451 
	C796.713074,200.297546 799.995605,197.482101 800.044617,187.803604 
	C800.128052,171.324265 800.145569,154.843552 800.027039,138.364594 
	C799.959595,128.991287 795.521179,125.679802 785.730042,127.770126 
	C785.730042,144.610306 785.730042,161.555069 785.730408,179.499786 
z"/>
<path fill="#ed1c24" opacity="1.000000" stroke="none" 
	d="
M1126.498901,223.628937 
	C1108.140747,231.456787 1089.724731,231.719559 1071.751831,224.588318 
	C1058.573364,219.359451 1052.414062,208.038055 1052.073608,194.106888 
	C1051.609863,175.130478 1051.820801,156.138062 1051.676392,137.153015 
	C1051.635010,131.728165 1052.483643,126.023361 1047.657471,121.794167 
	C1047.253662,121.440346 1047.164062,120.571800 1047.160889,119.941238 
	C1047.126953,113.158806 1047.139771,106.376152 1047.139771,99.320358 
	C1063.587891,99.320358 1079.483398,99.320358 1095.966064,99.320358 
	C1095.966064,106.432045 1096.012207,113.371307 1095.907104,120.308273 
	C1095.894165,121.164482 1094.992065,121.975998 1094.646118,122.864319 
	C1093.651733,125.417313 1091.935669,127.990448 1091.907593,130.570877 
	C1091.683716,151.220917 1091.776245,171.874496 1091.805054,192.526932 
	C1091.807007,193.847763 1091.591187,195.694290 1092.329956,196.389191 
	C1094.464966,198.397751 1096.837402,200.871231 1099.485840,201.438782 
	C1102.936768,202.178314 1105.927490,200.028564 1106.911621,196.256454 
	C1107.369629,194.500748 1107.613281,192.635391 1107.608032,190.820724 
	C1107.551025,171.004181 1107.551392,151.185471 1107.179321,131.374054 
	C1107.125122,128.486694 1105.215942,125.629837 1104.140015,122.768250 
	C1103.748047,121.725693 1102.927979,120.716362 1102.910400,119.681503 
	C1102.797119,113.043060 1102.852539,106.401749 1102.852539,99.399590 
	C1118.278076,99.399590 1133.333740,99.399590 1149.087769,99.399590 
	C1149.087769,106.501183 1149.108765,113.589523 1149.048218,120.677162 
	C1149.043335,121.249123 1148.614258,121.984489 1148.151611,122.359146 
	C1144.304077,125.475311 1144.187500,129.785919 1144.177124,134.185287 
	C1144.131226,153.837753 1144.270752,173.494141 1143.908936,193.141129 
	C1143.669800,206.123642 1138.359131,216.636169 1126.498901,223.628937 
z"/>
<path fill="#ed1c24" opacity="1.000000" stroke="none" 
	d="
M1491.783813,191.609421 
	C1491.237183,195.013092 1490.864746,197.993973 1490.197510,200.907303 
	C1487.451172,212.896317 1480.333252,221.521454 1468.667480,225.133163 
	C1445.824829,232.205139 1423.370728,230.931396 1401.788696,219.915329 
	C1397.541870,217.747620 1395.526123,214.937271 1395.843384,209.727982 
	C1396.396729,200.640350 1395.997437,191.494705 1395.997437,182.085464 
	C1409.125977,182.085464 1421.712280,182.085464 1434.750610,182.085464 
	C1434.995728,186.053375 1435.027222,190.006226 1435.533691,193.897217 
	C1436.187866,198.922653 1439.410522,201.875946 1443.592529,201.791519 
	C1447.679199,201.709015 1450.681519,198.332245 1451.136108,193.306778 
	C1451.916626,184.680008 1448.711548,179.761124 1440.315063,177.238007 
	C1435.060425,175.659073 1429.692383,174.460724 1424.387451,173.045685 
	C1401.019043,166.812256 1391.633179,156.616959 1394.508423,127.542900 
	C1396.080811,111.642326 1404.800903,102.032692 1420.625732,98.763649 
	C1442.052124,94.337479 1463.002319,95.888237 1482.669312,106.711876 
	C1486.394043,108.761703 1488.288574,111.024628 1488.021729,115.629929 
	C1487.562500,123.554413 1487.894531,131.524750 1487.894531,139.751038 
	C1475.234619,139.751038 1463.143311,139.751038 1450.525024,139.751038 
	C1450.403931,137.571671 1450.286621,135.458542 1450.169067,133.345398 
	C1449.919434,128.855530 1448.693726,124.926338 1443.501343,124.217430 
	C1439.574097,123.681229 1436.666748,125.509071 1435.286133,129.270493 
	C1433.613403,133.827133 1435.107910,138.991104 1439.072632,141.135056 
	C1442.113525,142.779449 1445.485107,143.871902 1448.795044,144.946396 
	C1455.280029,147.051544 1461.934448,148.674454 1468.322998,151.028290 
	C1485.030762,157.184265 1491.162842,165.858582 1491.852295,183.658936 
	C1491.948853,186.153671 1491.837402,188.656479 1491.783813,191.609421 
z"/>
<path fill="#ed1c24" opacity="1.000000" stroke="none" 
	d="
M540.290527,193.591034 
	C537.314026,194.155899 533.331055,193.966522 532.568176,195.442078 
	C530.931274,198.607712 532.764771,201.772125 535.996765,203.814133 
	C536.660339,204.233414 537.139404,205.454849 537.151489,206.314331 
	C537.245300,212.944183 537.203186,219.575958 537.203186,226.544876 
	C522.476013,226.544876 508.220886,226.544876 493.014130,226.544876 
	C494.358887,217.872314 491.265686,209.326050 495.741821,200.234085 
	C499.520752,192.558273 500.230194,183.299881 501.883209,174.662552 
	C506.447510,150.812714 510.790344,126.920517 515.239868,103.048630 
	C515.452271,101.909225 515.847351,100.803871 516.337402,99.031616 
	C518.984436,99.031616 521.750732,99.031609 524.517090,99.031624 
	C539.175171,99.031677 553.835205,99.159904 568.489929,98.939751 
	C572.057190,98.886162 573.344971,100.024040 574.023621,103.439583 
	C579.890259,132.965622 585.805908,162.483566 592.054993,191.930054 
	C592.937805,196.090240 595.695374,199.852737 597.586670,203.798615 
	C597.929993,204.514771 598.573425,205.224304 598.581543,205.942505 
	C598.658203,212.725449 598.627136,219.509628 598.627136,226.583633 
	C581.581726,226.583633 565.174500,226.583633 548.025513,226.583633 
	C548.025513,219.619614 547.933716,212.694946 548.125488,205.778152 
	C548.153931,204.752182 549.795044,203.864502 550.210510,202.736252 
	C551.083130,200.366089 552.030151,197.880707 552.043518,195.437668 
	C552.046875,194.832108 548.639465,193.962372 546.729309,193.660065 
	C544.779358,193.351456 542.742493,193.591553 540.290527,193.591034 
M535.743103,168.103912 
	C539.749329,168.323898 543.755554,168.543900 548.507935,168.804855 
	C546.245178,155.832031 544.173767,143.956055 542.102295,132.080078 
	C541.808411,132.097717 541.514526,132.115356 541.220581,132.132996 
	C539.294983,143.876816 537.369385,155.620651 535.743103,168.103912 
z"/>
<path fill="#ed1c24" opacity="1.000000" stroke="none" 
	d="
M1347.059082,164.925003 
	C1356.034912,164.924957 1364.518433,164.924957 1373.387695,164.924957 
	C1373.387695,185.511032 1373.387695,205.750381 1373.387695,226.443115 
	C1342.574097,226.443115 1311.702393,226.443115 1280.017456,226.443115 
	C1280.017456,219.687012 1277.897705,211.856384 1280.413940,206.026550 
	C1288.031128,188.377838 1282.415527,170.319702 1284.117432,152.583878 
	C1284.798584,145.485657 1284.477051,138.252258 1284.083862,131.109451 
	C1283.930420,128.323212 1282.338379,125.611946 1281.373169,122.876549 
	C1280.952759,121.684708 1280.087646,120.525558 1280.063721,119.338692 
	C1279.933228,112.851456 1280.001587,106.360237 1280.001587,99.450859 
	C1296.256470,99.450859 1312.276733,99.450859 1328.868286,99.450859 
	C1328.868286,106.360283 1328.872803,113.141449 1328.858765,119.922577 
	C1328.857788,120.415237 1328.907471,121.112984 1328.622314,121.369881 
	C1322.561157,126.830826 1324.746582,134.072632 1324.660767,140.666840 
	C1324.431274,158.324310 1324.582764,175.986740 1324.582886,193.647186 
	C1324.582886,195.449814 1324.582886,197.252426 1324.582886,198.926910 
	C1333.549194,201.221024 1337.982300,198.087692 1338.168091,189.492767 
	C1338.340332,181.534744 1338.204834,173.570068 1338.204834,164.925049 
	C1341.368408,164.925049 1343.967651,164.925049 1347.059082,164.925003 
z"/>
<path fill="#ed1c24" opacity="1.000000" stroke="none" 
	d="
M1215.000000,226.891678 
	C1199.346558,226.862320 1184.192993,226.835052 1169.039551,226.789322 
	C1168.732544,226.788391 1168.426025,226.572540 1167.391479,226.182739 
	C1167.391479,219.378815 1164.840332,210.795029 1167.928101,205.498901 
	C1174.160645,194.808762 1171.175537,184.109192 1171.709351,173.482590 
	C1172.385376,160.027542 1172.105713,146.505722 1171.709839,133.028214 
	C1171.605835,129.488312 1169.567505,125.999916 1168.377441,122.501465 
	C1168.119751,121.743965 1167.394043,121.048195 1167.385864,120.318413 
	C1167.308716,113.375664 1167.339844,106.431702 1167.339844,99.268356 
	C1183.722534,99.268356 1199.489136,99.268356 1215.997681,99.268356 
	C1215.997681,106.542290 1218.469727,115.124458 1215.431396,120.708374 
	C1210.601440,129.585098 1212.322876,138.151138 1212.061890,146.833679 
	C1211.591553,162.473541 1211.928833,178.137711 1211.928833,193.791718 
	C1211.928833,195.588104 1211.928833,197.384476 1211.928833,199.079300 
	C1221.339600,200.975845 1225.558228,197.930710 1225.811890,189.081375 
	C1226.035522,181.284882 1225.858765,173.476913 1225.858765,165.302765 
	C1237.642578,165.302765 1249.019409,165.302765 1260.726562,165.302765 
	C1260.726562,185.621140 1260.726562,205.858734 1260.726562,226.891724 
	C1245.657715,226.891724 1230.578857,226.891724 1215.000000,226.891678 
z"/>
<path fill="#ffffff" opacity="1.000000" stroke="none" 
	d="
M2019.004395,209.550201 
	C2031.135254,209.550232 2042.766968,209.550232 2055.064941,209.550232 
	C2055.064941,215.740448 2055.198486,221.652069 2054.929443,227.545334 
	C2054.885986,228.497971 2053.200684,229.710785 2052.021973,230.222305 
	C2044.181641,233.624924 2036.272827,236.869354 2028.386230,240.165268 
	C2028.471191,240.612778 2028.556152,241.060287 2028.640991,241.507797 
	C2037.231934,240.565231 2045.822754,239.622665 2054.776367,238.640320 
	C2054.776367,245.615250 2054.776367,252.008102 2054.776367,258.777679 
	C2044.200562,258.144684 2033.632690,257.011230 2023.065918,257.020447 
	C2012.468994,257.029724 2001.873047,258.178894 1991.021240,258.844147 
	C1991.021240,251.480377 1991.021240,244.392349 1991.021240,237.108276 
	C1999.789551,233.695389 2008.573242,230.276505 2018.776611,226.305054 
	C2012.906250,226.305054 2008.459839,225.993683 2004.078369,226.393860 
	C1999.815063,226.783264 1995.618164,227.901428 1990.996094,228.774384 
	C1990.996094,221.016510 1990.996094,214.444427 1990.996094,207.273758 
	C2000.335083,208.046570 2009.420166,208.798370 2019.004395,209.550201 
z"/>
<path fill="#ed1c24" opacity="1.000000" stroke="none" 
	d="
M2100.024902,206.006470 
	C2097.715088,205.966476 2095.875488,206.019562 2094.052002,205.870743 
	C2085.414062,205.165787 2079.948242,201.246857 2078.821777,192.745361 
	C2077.855957,185.455978 2078.190674,177.807404 2079.217773,170.495804 
	C2080.159424,163.796814 2085.101074,159.311584 2091.962158,159.050598 
	C2104.572510,158.570969 2117.224854,158.609482 2129.838623,159.044052 
	C2136.500977,159.273605 2140.839111,163.718521 2142.755615,169.935593 
	C2145.850098,179.973221 2145.295410,189.925919 2141.313721,199.732834 
	C2139.650146,203.830429 2137.228027,205.843155 2132.630127,205.184464 
	C2130.062500,204.816605 2127.398926,205.118286 2124.206543,205.118286 
	C2124.206543,199.420853 2124.063477,194.295425 2124.325928,189.190842 
	C2124.379150,188.157257 2125.966064,187.204437 2126.841553,186.210678 
	C2128.106689,184.774658 2129.368408,183.335327 2130.631348,181.897385 
	C2129.006104,180.727982 2127.523926,179.164108 2125.712646,178.508286 
	C2124.133789,177.936630 2122.183838,178.389114 2120.168213,178.389114 
	C2120.544678,181.740616 2121.090332,184.664383 2121.165039,187.600128 
	C2121.476074,199.819061 2115.585449,205.891937 2103.501709,206.003433 
	C2102.501953,206.012665 2101.502441,206.005875 2100.024902,206.006470 
M2102.234863,186.134369 
	C2102.898926,186.108932 2103.747314,186.337143 2104.193359,186.012329 
	C2105.759277,184.872467 2107.186768,183.542282 2108.666748,182.284302 
	C2107.198486,180.967758 2105.864502,178.770355 2104.233398,178.521759 
	C2101.037354,178.034607 2097.619385,178.339691 2094.413574,178.948456 
	C2093.346191,179.151138 2091.902100,181.336670 2091.984863,182.520844 
	C2092.068604,183.715546 2093.650146,185.402466 2094.905029,185.781174 
	C2096.902832,186.384155 2099.174561,186.081116 2102.234863,186.134369 
z"/>
<path fill="#ed1c24" opacity="1.000000" stroke="none" 
	d="
M2079.077148,274.592285 
	C2078.988525,266.287781 2078.288818,258.293610 2079.228027,250.496857 
	C2080.034912,243.800552 2085.020264,239.309586 2091.888428,239.032318 
	C2104.315674,238.530609 2116.784668,238.542892 2129.218506,238.923386 
	C2136.531494,239.147156 2141.049561,243.834412 2143.003418,250.714813 
	C2145.771973,260.463318 2145.179199,270.070343 2141.392578,279.528229 
	C2139.786133,283.540588 2137.538086,285.843079 2132.839111,285.146271 
	C2130.254395,284.763000 2127.566406,285.077698 2124.221436,285.077698 
	C2124.221436,279.434113 2124.078125,274.160706 2124.350586,268.908875 
	C2124.400879,267.938416 2126.166504,267.088501 2127.077393,266.123505 
	C2128.305420,264.822662 2130.587158,263.260803 2130.390137,262.180115 
	C2130.128174,260.740662 2128.102783,259.135162 2126.492432,258.560547 
	C2124.748779,257.938293 2122.611328,258.419617 2120.334473,258.419617 
	C2120.634033,262.189087 2121.194092,265.743195 2121.146240,269.289093 
	C2121.002197,279.993713 2115.048096,285.807953 2104.320557,285.969696 
	C2101.160889,286.017334 2097.991455,286.064148 2094.839600,285.881104 
	C2087.434326,285.451019 2081.689697,282.511597 2079.077148,274.592285 
M2104.833252,265.992523 
	C2106.086426,264.544189 2107.339355,263.095856 2108.592529,261.647552 
	C2107.114014,260.514160 2105.753418,258.672058 2104.131592,258.402924 
	C2101.238770,257.922791 2098.084961,257.964935 2095.247559,258.648438 
	C2093.856689,258.983398 2092.249512,261.155609 2092.045898,262.671875 
	C2091.920410,263.604706 2094.125244,265.565826 2095.522217,265.836426 
	C2098.251709,266.365265 2101.148193,266.032745 2104.833252,265.992523 
z"/>
<path fill="#ffffff" opacity="1.000000" stroke="none" 
	d="
M1992.990845,338.852966 
	C1987.150757,325.721344 1988.474731,313.294586 1995.025391,301.250275 
	C1995.585327,300.220917 1997.257568,299.287384 1998.468140,299.213684 
	C2002.584961,298.963013 2006.726440,299.117828 2011.087646,299.117828 
	C2011.087646,305.432861 2011.087646,311.388428 2011.087646,317.660706 
	C2009.875000,317.796326 2008.447632,317.610687 2007.401123,318.156036 
	C2005.931030,318.922089 2004.136230,320.012512 2003.643066,321.382721 
	C2003.298096,322.341248 2004.656616,324.862183 2005.683228,325.148560 
	C2007.332764,325.608826 2009.710571,325.332245 2011.082764,324.370880 
	C2012.379761,323.462097 2012.948730,321.328613 2013.533203,319.628967 
	C2014.557861,316.649567 2015.215454,313.542633 2016.263062,310.572510 
	C2020.008301,299.954407 2025.850220,296.267975 2037.210327,297.196625 
	C2047.786377,298.061188 2053.991699,303.192780 2055.651123,313.508575 
	C2057.202881,323.156342 2056.739746,332.740479 2051.996826,341.700317 
	C2050.704590,344.141449 2049.187256,345.419617 2046.176636,345.213531 
	C2041.735352,344.909424 2037.257690,345.135010 2032.531616,345.135010 
	C2032.531616,338.624969 2032.531616,332.520813 2032.531616,326.039978 
	C2034.666504,325.781586 2037.081055,325.908508 2039.120483,325.094788 
	C2040.478149,324.553070 2042.162354,322.638947 2042.118896,321.394226 
	C2042.075684,320.157013 2040.254028,318.337738 2038.863647,317.912231 
	C2034.673828,316.629883 2031.488892,318.643616 2030.115112,323.060028 
	C2029.129883,326.226990 2028.403931,329.473694 2027.500366,332.667297 
	C2025.615967,339.328217 2022.148315,344.776947 2014.742065,345.718719 
	C2006.731323,346.737335 1998.576416,347.212860 1992.990845,338.852966 
z"/>
<path fill="#ffffff" opacity="1.000000" stroke="none" 
	d="
M2012.533691,102.272171 
	C2012.533813,107.054306 2012.533813,111.369408 2012.533813,115.927521 
	C2008.313477,116.718689 2003.160156,116.575417 2004.821289,123.469116 
	C2008.284424,123.469116 2011.714233,123.469116 2015.731934,123.469116 
	C2015.731934,119.484192 2015.731934,115.443718 2015.731934,111.188873 
	C2020.213623,111.188873 2024.115723,111.188873 2028.473022,111.188873 
	C2028.473022,115.334557 2028.473022,119.275032 2028.473022,123.477127 
	C2032.856201,123.477127 2036.787109,123.477127 2040.708252,123.477127 
	C2041.667969,117.285225 2041.424683,117.069092 2032.242554,116.120300 
	C2032.242554,110.285744 2032.242554,104.405991 2032.242554,98.241432 
	C2039.582886,98.241432 2046.999390,98.241432 2054.745117,98.241432 
	C2054.745117,114.020615 2054.745117,129.880859 2054.745117,146.875809 
	C2050.032715,145.998352 2045.631714,145.167145 2041.224976,144.367401 
	C2040.249756,144.190399 2039.254761,144.024857 2038.268433,144.022659 
	C2027.941650,143.999619 2017.608643,143.803207 2007.290771,144.108856 
	C2002.780396,144.242477 1998.303467,145.440369 1993.804810,146.110870 
	C1993.015259,146.228531 1992.193359,146.127518 1991.084351,146.127518 
	C1991.084351,130.105408 1991.084351,114.360428 1991.084351,97.965515 
	C1997.353516,97.965515 2003.793579,97.827003 2010.211914,98.135452 
	C2011.042725,98.175385 2011.762451,100.525269 2012.533691,102.272171 
z"/>
<path fill="#FFFFFF" opacity="1.000000" stroke="none" 
	d="
M1994.781616,195.198929 
	C1986.268677,184.973572 1988.932739,164.863770 1995.632446,154.814621 
	C1996.160522,154.022476 1997.462524,153.339676 1998.425171,153.311951 
	C2003.540405,153.164627 2008.661987,153.242661 2014.004639,153.242661 
	C2014.004639,159.858337 2014.004639,165.968353 2014.004639,172.864929 
	C2011.933594,172.864929 2009.696289,172.389404 2007.817627,173.006195 
	C2006.128662,173.560608 2004.833374,175.314224 2003.364502,176.538879 
	C2004.734985,177.699768 2006.078857,179.828354 2007.480347,179.867020 
	C2017.793335,180.151566 2028.121460,180.148331 2038.434204,179.858414 
	C2039.775513,179.820694 2041.056030,177.628418 2042.364624,176.434097 
	C2041.052979,175.253418 2039.867920,173.289291 2038.403564,173.052567 
	C2035.197388,172.534271 2031.849365,172.892059 2028.299316,172.892059 
	C2028.299316,166.180237 2028.299316,159.957947 2028.299316,153.247330 
	C2034.946655,153.247330 2041.401855,153.094635 2047.837769,153.378983 
	C2049.092285,153.434402 2050.738525,154.938644 2051.412598,156.198196 
	C2057.303467,167.204910 2058.122070,178.745789 2053.797852,190.392715 
	C2051.408936,196.826706 2045.897095,199.791885 2039.261108,199.940552 
	C2028.114014,200.190292 2016.938232,200.380554 2005.815430,199.806168 
	C2002.157471,199.617264 1998.625610,196.983292 1994.781616,195.198929 
z"/>
<path fill="#FFFFFF" opacity="1.000000" stroke="none" 
	d="
M2002.247192,290.286957 
	C1998.382690,290.516968 1994.903931,290.516968 1991.091064,290.516968 
	C1991.091064,282.633728 1991.091064,274.724731 1991.091064,265.628754 
	C2012.248047,269.328522 2033.423340,269.551086 2054.837158,265.495300 
	C2054.837158,274.509460 2054.837158,282.407684 2054.837158,291.534698 
	C2050.173828,290.657440 2045.942871,289.848938 2041.706055,289.072815 
	C2040.564209,288.863678 2039.404907,288.621948 2038.252686,288.617859 
	C2028.090088,288.581757 2017.926636,288.528442 2007.765625,288.660889 
	C2006.048828,288.683228 2004.343506,289.569733 2002.247192,290.286957 
z"/>
<path fill="#ed1c24" opacity="1.000000" stroke="none" 
	d="
M2093.009766,102.400383 
	C2102.817139,102.400398 2112.135254,102.636719 2121.433105,102.304810 
	C2126.454590,102.125557 2131.432617,100.899834 2136.448730,100.300369 
	C2138.389404,100.068420 2140.381104,100.262489 2142.792969,100.262489 
	C2142.792969,108.520035 2142.792969,116.363434 2142.792969,125.384384 
	C2121.679688,121.761856 2100.648926,121.638939 2079.290527,125.532913 
	C2079.290527,117.363159 2079.290527,110.296066 2079.290527,102.400032 
	C2083.681396,102.400032 2088.096680,102.400032 2093.009766,102.400383 
z"/>
<path fill="#ed1c24" opacity="1.000000" stroke="none" 
	d="
M2117.975830,341.891968 
	C2111.315430,341.892029 2105.135742,341.628540 2098.990479,341.976135 
	C2094.129639,342.251068 2089.317627,343.332031 2084.469482,343.936859 
	C2082.866211,344.136841 2081.217041,343.968353 2079.275879,343.968353 
	C2079.275879,336.587311 2079.275879,329.662811 2079.275879,322.098877 
	C2080.936768,322.014679 2082.682373,321.853027 2084.428223,321.849518 
	C2095.924561,321.826538 2107.427490,322.061218 2118.914795,321.738892 
	C2124.286621,321.588165 2129.618164,320.282318 2134.989502,319.700073 
	C2137.435791,319.434906 2139.935059,319.654999 2142.821289,319.654999 
	C2142.821289,327.798218 2142.821289,335.523926 2142.821289,344.102356 
	C2134.644287,343.360107 2126.557861,342.626068 2117.975830,341.891968 
z"/>
<path fill="#000000" opacity="1.000000" stroke="none" 
	d="
M430.361145,273.583557 
	C438.938904,282.325897 437.242371,292.351044 425.905396,300.673218 
	C426.730469,301.031769 427.406952,301.421478 428.135406,301.628235 
	C444.239594,306.200104 442.682587,325.774048 433.918793,332.951385 
	C428.338837,337.521210 421.901672,339.441437 414.980377,339.598938 
	C403.517059,339.859772 392.043488,339.669830 380.213806,339.669830 
	C380.213806,316.165680 380.213806,292.794037 380.213806,269.478210 
	C393.598053,269.478210 407.024658,269.233368 420.430359,269.654572 
	C423.682587,269.756744 426.865845,272.053833 430.361145,273.583557 
M397.983063,311.702240 
	C397.983063,316.620026 397.983063,321.537781 397.983063,327.194031 
	C404.129456,326.733032 409.802307,326.847992 415.182739,325.649841 
	C417.477905,325.138672 420.309875,322.135895 420.817810,319.810944 
	C421.381866,317.228882 420.483765,312.687988 418.630920,311.516174 
	C412.370789,307.557068 405.120270,308.659088 398.116516,309.802094 
	C398.026276,309.816803 398.031433,310.416229 397.983063,311.702240 
M409.673859,296.504425 
	C415.423248,295.128815 417.421112,292.949371 416.964569,288.388428 
	C416.453094,283.278259 412.860596,282.062805 408.530334,281.966949 
	C405.119324,281.891388 401.705322,281.951752 398.251678,281.951752 
	C398.251678,287.109863 398.251678,291.816162 398.251678,296.660461 
	C401.952362,296.660461 405.386658,296.660461 409.673859,296.504425 
z"/>
<path fill="#000000" opacity="1.000000" stroke="none" 
	d="
M1032.541016,298.658722 
	C1031.455688,299.415344 1030.668457,299.958466 1029.757080,300.587280 
	C1042.217896,305.729095 1046.019409,311.702606 1043.943359,322.556213 
	C1042.409668,330.573608 1034.796387,338.123413 1025.130005,338.718079 
	C1011.583618,339.551422 997.947632,338.928467 984.067261,338.928467 
	C984.067261,316.127808 984.067261,292.869629 984.067261,268.870209 
	C986.645020,268.870209 989.397217,268.854858 992.149231,268.872986 
	C1001.807617,268.936676 1011.476135,268.761169 1021.121643,269.150879 
	C1031.457031,269.568481 1037.885132,274.413269 1039.334961,282.287445 
	C1040.570557,288.998138 1038.245605,294.362183 1032.541016,298.658722 
M1022.432800,311.018555 
	C1015.704224,310.101837 1008.975647,309.185120 1002.218628,308.264496 
	C1002.218628,315.291016 1002.218628,320.864838 1002.218628,326.995026 
	C1007.427795,326.753693 1012.420654,326.976074 1017.251953,326.196930 
	C1025.394531,324.883728 1027.787354,318.415955 1022.432800,311.018555 
M1001.940857,291.394562 
	C1001.940857,293.147614 1001.940857,294.900665 1001.940857,297.142670 
	C1006.772034,296.799164 1010.903442,296.666565 1014.990540,296.169739 
	C1019.129517,295.666595 1021.017883,292.952759 1020.934692,288.898376 
	C1020.848267,284.684845 1018.347107,282.431549 1014.395935,282.137787 
	C1010.338440,281.836151 1006.241150,282.070892 1001.940857,282.070892 
	C1001.940857,285.149475 1001.940857,287.791016 1001.940857,291.394562 
z"/>
<path fill="#000000" opacity="1.000000" stroke="none" 
	d="
M739.542847,303.409943 
	C748.935425,313.314331 747.169373,327.452576 735.780945,335.030121 
	C726.191040,341.410919 715.340332,341.813049 704.479980,340.564209 
	C697.955139,339.813904 691.585266,337.716248 685.241455,336.246277 
	C685.241455,329.936157 685.241455,324.362610 685.241455,318.004181 
	C687.309875,319.192352 688.838745,320.038025 690.336121,320.936035 
	C699.307617,326.316498 708.812500,329.261566 719.379761,327.246826 
	C722.970093,326.562347 726.520386,325.345825 726.669250,321.030884 
	C726.819763,316.669312 723.164307,315.268402 719.753418,314.316437 
	C713.039795,312.442871 706.149963,311.154938 699.519958,309.039001 
	C690.957275,306.306213 685.844055,300.376709 685.405212,291.111694 
	C684.976257,282.055481 689.651550,275.972595 697.316101,271.955475 
	C708.596497,266.043243 720.524109,266.852264 732.434998,269.215729 
	C742.894287,271.291168 742.855591,271.486206 742.855042,282.191223 
	C742.854980,284.172089 742.855042,286.152954 742.855042,289.175751 
	C740.688660,288.039642 739.154297,287.333649 737.718018,286.465210 
	C730.206482,281.923248 722.121216,279.840851 713.371887,280.977722 
	C711.285950,281.248779 709.008301,281.827759 707.342041,283.005402 
	C705.898743,284.025513 704.255554,286.193787 704.411438,287.674438 
	C704.595886,289.426605 706.289551,291.856140 707.902649,292.460266 
	C712.226013,294.079315 716.961548,294.573151 721.337891,296.081177 
	C727.408630,298.173096 733.301025,300.782745 739.542847,303.409943 
z"/>
<path fill="#272324" opacity="1.000000" stroke="none" 
	d="
M1146.837402,339.323547 
	C1140.809937,339.663879 1135.035522,339.663879 1128.650024,339.663879 
	C1130.191650,335.417816 1131.575073,331.559692 1132.991577,327.713776 
	C1139.700439,309.499359 1146.487305,291.313171 1153.066284,273.052032 
	C1154.179443,269.962128 1155.489258,268.526489 1159.036011,268.768280 
	C1164.494873,269.140442 1169.997681,268.866241 1175.828003,268.866241 
	C1184.512329,292.376129 1193.170410,315.815277 1202.039185,339.824554 
	C1196.195190,339.824554 1190.920898,340.020172 1185.680786,339.683197 
	C1184.414551,339.601776 1182.667480,337.995911 1182.149414,336.690948 
	C1177.656250,325.373413 1177.724365,325.287384 1165.819824,325.375824 
	C1161.220947,325.409973 1155.447998,324.173950 1152.355713,326.442108 
	C1149.220825,328.741394 1148.735840,334.653473 1146.837402,339.323547 
M1161.050293,298.530365 
	C1159.573608,302.951721 1158.096802,307.373077 1156.526001,312.076050 
	C1162.585449,312.076050 1167.811523,312.076050 1173.654419,312.076050 
	C1170.835205,303.888641 1168.165894,296.136444 1165.081055,287.177673 
	C1163.485229,291.621582 1162.380615,294.697601 1161.050293,298.530365 
z"/>
<path fill="#272324" opacity="1.000000" stroke="none" 
	d="
M589.903625,339.827179 
	C586.112976,339.827179 582.792847,339.827179 579.307739,339.827179 
	C577.921143,335.937805 576.826660,332.087494 575.136536,328.519348 
	C574.480286,327.133850 572.518311,325.558105 571.082703,325.488861 
	C564.442322,325.168396 557.769226,325.167328 551.129028,325.489471 
	C549.690491,325.559265 547.758728,327.141693 547.062012,328.532379 
	C545.294678,332.060028 545.097595,337.427795 542.406921,339.157043 
	C539.437134,341.065674 534.390564,339.751831 530.248291,339.822571 
	C528.608459,339.850586 526.967773,339.827179 524.633484,339.827179 
	C526.104797,335.822571 527.400513,332.290833 528.699768,328.760437 
	C535.517517,310.235962 542.389465,291.731110 549.100525,273.168091 
	C550.179626,270.183105 551.326721,268.444061 554.990601,268.773041 
	C560.573181,269.274261 567.502380,267.226105 571.451416,269.864807 
	C575.176025,272.353516 575.860229,279.473450 577.756653,284.602386 
	C584.479431,302.784729 591.148743,320.986847 598.075684,339.827179 
	C595.180969,339.827179 592.777588,339.827179 589.903625,339.827179 
M553.910828,312.279358 
	C558.983887,312.279358 564.056885,312.279358 569.774963,312.279358 
	C566.901978,303.889557 564.274963,296.218048 561.648010,288.546570 
	C561.225647,288.522858 560.803284,288.499115 560.380920,288.475403 
	C557.957397,296.271545 555.533936,304.067657 553.910828,312.279358 
z"/>
<path fill="#000000" opacity="1.000000" stroke="none" 
	d="
M837.862793,321.998871 
	C837.862793,304.196228 837.862793,286.893219 837.862793,269.228455 
	C854.862366,269.228455 871.714722,269.228455 888.814697,269.228455 
	C888.814697,273.483154 888.814697,277.742126 888.814697,282.424438 
	C878.013428,282.424438 867.256348,282.424438 856.253967,282.424438 
	C856.253967,286.614929 856.253967,290.389618 856.253967,294.743774 
	C866.246948,294.743774 876.295349,294.743774 886.570435,294.743774 
	C886.570435,299.415558 886.570435,303.523834 886.570435,308.190491 
	C876.583252,308.190491 866.535767,308.190491 856.248535,308.190491 
	C856.248535,314.328308 856.248535,319.914459 856.248535,325.906433 
	C867.063416,325.906433 877.798218,325.906433 888.793579,325.906433 
	C888.793579,330.556549 888.793579,334.815521 888.793579,339.451782 
	C872.024841,339.451782 855.182983,339.451782 837.862793,339.451782 
	C837.862793,333.730804 837.862793,328.114655 837.862793,321.998871 
z"/>
<path fill="#000000" opacity="1.000000" stroke="none" 
	d="
M1309.751099,305.999847 
	C1309.751099,312.810699 1309.751099,319.121643 1309.751099,325.811005 
	C1320.602905,325.811005 1331.209106,325.811005 1342.186646,325.811005 
	C1342.186646,330.556000 1342.186646,334.927460 1342.186646,339.571594 
	C1325.317261,339.571594 1308.585693,339.571594 1291.545898,339.571594 
	C1291.545898,316.149750 1291.545898,292.900391 1291.545898,269.250916 
	C1297.365723,269.250916 1303.249878,269.250916 1309.751099,269.250916 
	C1309.751099,281.281952 1309.751099,293.390930 1309.751099,305.999847 
z"/>
<path fill="#000000" opacity="1.000000" stroke="none" 
	d="
M1450.645752,306.999847 
	C1450.645630,313.480804 1450.645630,319.461761 1450.645630,325.816162 
	C1461.488281,325.816162 1472.099487,325.816162 1483.060181,325.816162 
	C1483.060181,330.563690 1483.060181,334.941986 1483.060181,339.580872 
	C1466.220703,339.580872 1449.491577,339.580872 1432.462280,339.580872 
	C1432.462280,316.147095 1432.462280,292.900208 1432.462280,269.253235 
	C1438.263428,269.253235 1444.152466,269.253235 1450.645752,269.253235 
	C1450.645752,281.606049 1450.645752,294.052948 1450.645752,306.999847 
z"/>
<path fill="#000000" opacity="1.000000" stroke="none" 
	d="
M1883.297363,312.663635 
	C1878.562012,305.830017 1878.488403,299.812408 1882.830444,294.579071 
	C1887.296753,289.195984 1895.221558,287.317596 1901.889648,290.061371 
	C1908.203613,292.659485 1911.777832,298.478088 1911.096680,305.049561 
	C1910.021240,315.424438 1896.847412,321.281433 1887.079346,315.679321 
	C1885.798706,314.944916 1884.719116,313.859650 1883.297363,312.663635 
z"/>
<path fill="#000000" opacity="1.000000" stroke="none" 
	d="
M968.316406,195.735641 
	C968.316345,188.950516 968.440552,182.631012 968.265198,176.319839 
	C968.177002,173.143433 969.445007,172.228851 972.421326,172.541611 
	C977.129883,173.036453 982.146057,173.231033 983.876526,178.686554 
	C985.829834,184.844894 986.267395,191.176208 982.279297,196.843918 
	C980.354797,199.578827 972.504517,201.516724 969.833252,199.921875 
	C968.915222,199.373795 968.799255,197.482407 968.316406,195.735641 
z"/>
<path fill="#000000" opacity="1.000000" stroke="none" 
	d="
M968.310913,130.430145 
	C967.835999,126.526581 969.116150,125.416039 972.750122,125.683937 
	C982.776733,126.423103 987.409241,133.542191 983.659485,142.991608 
	C982.120667,146.869385 973.736755,150.417358 969.951355,148.486954 
	C969.023621,148.013870 968.436462,146.098785 968.385620,144.819138 
	C968.201355,140.177383 968.311523,135.523956 968.310913,130.430145 
z"/>
<path fill="#000000" opacity="1.000000" stroke="none" 
	d="
M671.457153,127.361572 
	C675.984192,132.520721 677.010376,141.926147 673.686279,147.142380 
	C670.609924,151.969879 665.705261,151.735962 660.419067,151.496780 
	C660.419067,142.966187 660.419067,134.599487 660.419067,124.947433 
	C664.036804,125.687805 667.587646,126.414490 671.457153,127.361572 
z"/>
<path fill="#000000" opacity="1.000000" stroke="none" 
	d="
M785.730225,178.999817 
	C785.730042,161.555069 785.730042,144.610306 785.730042,127.770126 
	C795.521179,125.679802 799.959595,128.991287 800.027039,138.364594 
	C800.145569,154.843552 800.128052,171.324265 800.044617,187.803604 
	C799.995605,197.482101 796.713074,200.297546 785.730408,199.624451 
	C785.730408,192.977768 785.730408,186.238785 785.730225,178.999817 
z"/>
<path fill="#000000" opacity="1.000000" stroke="none" 
	d="
M535.593384,167.734192 
	C537.369385,155.620651 539.294983,143.876816 541.220581,132.132996 
	C541.514526,132.115356 541.808411,132.097717 542.102295,132.080078 
	C544.173767,143.956055 546.245178,155.832031 548.507935,168.804855 
	C543.755554,168.543900 539.749329,168.323898 535.593384,167.734192 
z"/>
<path fill="#000000" opacity="1.000000" stroke="none" 
	d="
M2101.782715,186.147812 
	C2099.174561,186.081116 2096.902832,186.384155 2094.905029,185.781174 
	C2093.650146,185.402466 2092.068604,183.715546 2091.984863,182.520844 
	C2091.902100,181.336670 2093.346191,179.151138 2094.413574,178.948456 
	C2097.619385,178.339691 2101.037354,178.034607 2104.233398,178.521759 
	C2105.864502,178.770355 2107.198486,180.967758 2108.666748,182.284332 
	C2107.186768,183.542282 2105.759277,184.872467 2104.193359,186.012329 
	C2103.747314,186.337143 2102.898926,186.108932 2101.782715,186.147812 
z"/>
<path fill="#000000" opacity="1.000000" stroke="none" 
	d="
M2104.404297,266.024658 
	C2101.148193,266.032745 2098.251709,266.365265 2095.522217,265.836426 
	C2094.125244,265.565826 2091.920410,263.604706 2092.045898,262.671875 
	C2092.249512,261.155609 2093.856689,258.983398 2095.247559,258.648438 
	C2098.084961,257.964935 2101.238770,257.922791 2104.131592,258.402924 
	C2105.753418,258.672058 2107.114014,260.514160 2108.592529,261.647522 
	C2107.339355,263.095856 2106.086426,264.544189 2104.404297,266.024658 
z"/>
<path fill="#FFFFFF" opacity="1.000000" stroke="none" 
	d="
M397.987549,311.222473 
	C398.031433,310.416229 398.026276,309.816803 398.116516,309.802094 
	C405.120270,308.659088 412.370789,307.557068 418.630920,311.516174 
	C420.483765,312.687988 421.381866,317.228882 420.817810,319.810944 
	C420.309875,322.135895 417.477905,325.138672 415.182739,325.649841 
	C409.802307,326.847992 404.129456,326.733032 397.983063,327.194031 
	C397.983063,321.537781 397.983063,316.620026 397.987549,311.222473 
z"/>
<path fill="#FFFFFF" opacity="1.000000" stroke="none" 
	d="
M409.247437,296.582458 
	C405.386658,296.660461 401.952362,296.660461 398.251678,296.660461 
	C398.251678,291.816162 398.251678,287.109863 398.251678,281.951752 
	C401.705322,281.951752 405.119324,281.891388 408.530334,281.966949 
	C412.860596,282.062805 416.453094,283.278259 416.964569,288.388428 
	C417.421112,292.949371 415.423248,295.128815 409.247437,296.582458 
z"/>
<path fill="#FFFFFF" opacity="1.000000" stroke="none" 
	d="
M1022.754150,311.267151 
	C1027.787354,318.415955 1025.394531,324.883728 1017.251953,326.196930 
	C1012.420654,326.976074 1007.427795,326.753693 1002.218628,326.995026 
	C1002.218628,320.864838 1002.218628,315.291016 1002.218628,308.264496 
	C1008.975647,309.185120 1015.704224,310.101837 1022.754150,311.267151 
z"/>
<path fill="#FFFFFF" opacity="1.000000" stroke="none" 
	d="
M1001.940857,290.913574 
	C1001.940857,287.791016 1001.940857,285.149475 1001.940857,282.070892 
	C1006.241150,282.070892 1010.338440,281.836151 1014.395935,282.137787 
	C1018.347107,282.431549 1020.848267,284.684845 1020.934692,288.898376 
	C1021.017883,292.952759 1019.129517,295.666595 1014.990540,296.169739 
	C1010.903442,296.666565 1006.772034,296.799164 1001.940857,297.142670 
	C1001.940857,294.900665 1001.940857,293.147614 1001.940857,290.913574 
z"/>
<path fill="#FFFFFF" opacity="1.000000" stroke="none" 
	d="
M1161.163086,298.152008 
	C1162.380615,294.697601 1163.485229,291.621582 1165.081055,287.177673 
	C1168.165894,296.136444 1170.835205,303.888641 1173.654419,312.076050 
	C1167.811523,312.076050 1162.585449,312.076050 1156.526001,312.076050 
	C1158.096802,307.373077 1159.573608,302.951721 1161.163086,298.152008 
z"/>
<path fill="#FFFFFF" opacity="1.000000" stroke="none" 
	d="
M553.510620,312.071594 
	C555.533936,304.067657 557.957397,296.271545 560.380920,288.475403 
	C560.803284,288.499115 561.225647,288.522858 561.648010,288.546570 
	C564.274963,296.218048 566.901978,303.889557 569.774963,312.279358 
	C564.056885,312.279358 558.983887,312.279358 553.510620,312.071594 
z"/>
</svg>